{"glyphs":{"0":{"ha":930,"x_min":56,"x_max":875,"o":"m 56 386 q 70 525 56 457 q 116 657 84 593 q 195 769 149 722 q 311 846 241 817 q 465 875 380 875 q 620 846 550 875 q 735 769 689 817 q 814 657 782 722 q 861 525 846 593 q 875 386 875 457 q 851 223 875 294 q 790 108 828 152 q 697 36 751 64 q 587 -3 643 8 q 465 -14 530 -14 q 344 -3 400 -14 q 233 36 288 8 q 141 108 179 64 q 79 223 102 152 q 56 386 56 294 m 250 367 q 306 136 250 216 q 465 56 362 56 q 625 136 568 56 q 681 367 681 216 q 670 526 681 452 q 635 665 659 600 q 568 768 612 730 q 465 806 525 806 q 362 768 406 806 q 295 664 319 730 q 261 525 272 599 q 250 367 250 452 z "},"1":{"ha":369,"x_min":14,"x_max":300,"o":"m 14 741 l 14 799 q 114 817 75 806 q 171 836 153 827 q 233 869 189 844 l 300 869 l 300 0 l 119 0 l 119 667 q 99 722 119 703 q 43 741 78 741 l 14 741 z "},"2":{"ha":785,"x_min":28,"x_max":757,"o":"m 28 0 l 28 83 q 242 220 151 155 q 389 335 334 284 q 477 435 444 387 q 523 522 511 484 q 534 600 534 560 q 485 733 534 684 q 345 782 436 782 q 200 732 255 782 q 144 614 144 682 q 164 539 144 577 q 150 530 165 538 q 119 515 134 523 l 103 509 q 93 523 99 514 q 78 562 87 532 q 68 621 68 591 q 112 750 68 692 q 233 842 157 809 q 400 875 309 875 q 637 795 545 875 q 729 595 729 715 q 703 474 729 531 q 646 377 677 416 q 545 289 615 338 q 433 215 475 239 q 296 138 391 191 q 272 125 280 130 l 757 125 l 757 0 l 28 0 z "},"3":{"ha":805,"x_min":28,"x_max":757,"o":"m 28 174 q 168 38 77 89 q 389 -14 258 -14 q 484 -7 437 -14 q 581 17 530 -1 q 670 63 632 35 q 732 138 708 91 q 757 245 757 185 q 737 335 757 295 q 684 401 718 376 q 610 443 650 427 q 525 461 570 458 q 672 520 615 471 q 729 656 729 570 q 637 814 729 753 q 404 875 545 875 q 222 838 304 875 q 97 736 140 800 l 180 700 q 382 785 248 785 q 496 747 450 785 q 542 633 542 710 q 497 526 542 559 q 382 493 452 493 l 326 493 l 326 410 l 382 410 q 515 363 467 410 q 562 250 562 317 q 506 122 562 167 q 366 77 449 77 q 217 112 279 77 q 125 196 155 147 l 28 174 z "},"4":{"ha":836,"x_min":41,"x_max":822,"o":"m 41 488 q 121 697 41 591 q 307 861 201 804 l 390 861 q 360 825 382 854 q 309 751 338 796 q 258 648 279 705 q 236 542 236 590 q 252 471 236 502 q 295 419 269 439 q 362 386 322 399 q 443 365 401 372 q 534 355 484 359 l 534 861 l 715 861 l 715 355 q 822 364 734 356 l 822 294 q 715 273 766 282 l 715 0 l 534 0 l 534 250 q 382 244 425 244 q 276 253 326 244 q 182 281 226 262 q 108 328 139 300 q 59 397 77 356 q 41 488 41 437 z "},"5":{"ha":770,"x_min":28,"x_max":722,"o":"m 28 25 l 43 89 q 241 69 143 69 q 356 79 305 69 q 446 112 406 90 q 506 172 485 134 q 528 262 528 210 q 465 395 528 353 q 298 437 402 437 q 211 429 259 437 q 138 410 163 420 l 102 439 l 193 861 l 653 861 l 653 736 l 236 736 l 183 494 q 363 522 258 522 q 493 508 431 522 q 607 465 554 494 q 691 384 660 436 q 722 262 722 332 q 339 -14 722 -14 q 189 -4 267 -14 q 69 15 111 5 l 28 25 z "},"6":{"ha":875,"x_min":56,"x_max":833,"o":"m 56 389 q 83 567 56 485 q 154 705 110 650 q 254 800 197 760 q 367 857 310 839 q 479 875 425 875 q 762 737 680 875 l 710 713 q 624 775 676 751 q 507 799 571 799 q 320 702 391 799 q 250 403 250 605 q 309 139 250 223 q 465 56 368 56 q 592 99 545 56 q 639 233 639 143 q 626 310 639 276 q 594 365 614 344 q 548 400 574 387 q 495 420 522 414 q 443 425 469 425 q 368 416 406 425 q 310 396 330 406 l 311 472 q 504 510 386 510 q 597 503 553 510 q 686 476 642 495 q 762 430 730 458 q 814 357 794 401 q 833 256 833 312 q 818 165 833 206 q 779 98 803 125 q 721 50 755 71 q 654 17 687 28 q 583 -2 621 5 q 518 -11 546 -9 q 465 -14 491 -14 q 402 -10 435 -14 q 328 5 370 -6 q 250 35 287 17 q 177 84 214 53 q 114 156 140 115 q 72 257 88 197 q 56 389 56 317 z "},"7":{"ha":701,"x_min":14,"x_max":688,"o":"m 14 736 l 14 861 l 688 861 l 688 778 q 345 126 345 568 q 351 -3 345 72 l 157 -3 q 147 92 147 51 q 191 330 147 207 q 322 564 235 454 q 521 736 409 674 l 14 736 z "},"8":{"ha":833,"x_min":49,"x_max":785,"o":"m 49 240 q 61 308 49 277 q 91 361 73 340 q 135 400 109 382 q 182 428 161 418 q 231 445 204 437 q 269 455 257 453 q 293 460 280 458 q 262 468 280 462 q 219 488 245 473 q 172 522 193 503 q 136 575 151 542 q 121 647 121 608 q 147 752 121 707 q 217 823 174 798 q 312 862 261 849 q 416 875 362 875 q 500 867 459 875 q 580 842 541 860 q 648 799 619 825 q 695 734 677 773 q 713 647 713 695 q 697 575 713 608 q 662 522 682 542 q 615 488 641 503 q 571 468 589 473 q 541 460 553 462 q 565 455 553 458 q 603 445 576 453 q 651 428 629 437 q 699 400 673 418 q 743 361 725 382 q 772 308 760 340 q 785 240 785 277 q 770 157 785 195 q 733 94 756 119 q 678 48 710 68 q 613 17 646 28 q 543 -2 580 5 q 475 -11 505 -9 q 416 -14 446 -14 q 357 -11 387 -14 q 290 -2 328 -9 q 220 17 253 5 q 155 48 187 28 q 100 94 123 68 q 63 157 77 119 q 49 240 49 195 m 243 229 q 416 56 243 56 q 590 229 590 56 q 586 267 590 245 q 572 314 583 288 q 546 363 562 341 q 503 403 530 386 q 441 425 475 420 l 441 492 q 522 540 489 501 q 554 653 554 579 q 544 722 554 692 q 519 766 534 751 q 485 791 505 782 q 449 803 465 801 q 416 806 433 806 q 384 803 399 806 q 348 791 368 801 q 313 766 328 782 q 289 722 299 751 q 279 653 279 692 q 312 540 279 579 q 392 492 345 501 l 392 425 q 319 395 350 420 q 272 338 288 371 q 250 278 257 306 q 243 229 243 250 z "},"9":{"ha":875,"x_min":41,"x_max":819,"o":"m 41 591 q 55 682 41 641 q 91 752 68 724 q 145 803 114 781 q 210 839 177 825 q 279 860 242 852 q 348 872 317 869 q 410 875 379 875 q 477 871 444 875 q 552 856 511 867 q 630 826 594 844 q 702 777 667 808 q 763 705 738 745 q 804 604 788 664 q 819 472 819 544 q 792 293 819 376 q 721 156 765 211 q 622 61 677 100 q 508 4 566 22 q 396 -14 451 -14 q 113 123 195 -14 l 165 149 q 252 86 199 111 q 368 62 304 62 q 555 159 485 62 q 625 458 625 256 q 566 722 625 638 q 410 806 507 806 q 283 762 330 806 q 236 628 236 718 q 249 551 236 585 q 281 496 261 517 q 327 461 300 475 q 379 441 353 447 q 432 436 406 436 q 507 446 469 436 q 566 465 546 455 l 564 389 q 371 351 490 351 q 277 357 321 351 q 189 380 233 363 q 113 422 144 397 q 61 492 81 448 q 41 591 41 535 z "}," ":{"ha":277,"x_min":0,"x_max":0,"o":""},"!":{"ha":319,"x_min":69,"x_max":250,"o":"m 69 861 l 250 861 l 229 208 l 90 208 l 69 861 m 72 65 q 96 122 72 98 q 160 146 121 146 q 223 122 200 146 q 245 65 245 98 q 222 10 245 33 q 160 -14 199 -14 q 96 10 121 -14 q 72 65 72 34 z "},"\"":{"ha":458,"x_min":41,"x_max":416,"o":"m 41 799 q 63 854 41 834 q 118 875 85 875 q 173 854 151 875 q 195 799 195 834 q 168 704 195 779 q 135 583 140 629 l 102 583 q 69 704 96 629 q 41 799 41 779 m 264 799 q 286 854 264 834 q 340 875 307 875 q 395 854 374 875 q 416 799 416 834 q 389 704 416 779 q 357 583 362 629 l 323 583 q 291 704 318 629 q 264 799 264 779 z "},"#":{"ha":861,"x_min":41,"x_max":819,"o":"m 41 257 l 41 354 l 218 354 q 241 408 224 367 q 268 472 258 450 l 41 472 l 41 570 l 310 571 q 452 861 386 747 l 549 861 q 407 571 473 726 l 561 574 q 701 861 634 743 l 799 861 q 659 575 729 739 q 819 583 797 581 l 819 486 q 616 476 764 481 l 567 358 q 819 368 748 360 l 819 271 q 525 260 762 265 q 396 0 455 104 l 298 0 q 427 258 368 121 l 273 257 q 146 0 199 93 l 49 0 q 176 257 107 103 l 41 257 m 315 355 q 468 357 416 355 l 518 475 q 442 474 493 475 q 366 473 391 473 l 315 355 z "},"$":{"ha":875,"x_min":56,"x_max":819,"o":"m 56 118 l 98 196 q 113 184 103 191 q 154 157 122 176 q 220 122 185 138 q 308 93 254 107 q 416 77 361 79 l 416 367 l 386 379 q 306 415 340 399 q 233 457 273 431 q 169 508 194 482 q 128 568 144 533 q 111 640 111 602 q 191 807 111 744 q 416 875 271 870 l 416 958 l 479 958 l 479 873 q 762 764 633 861 l 720 685 q 479 782 601 766 l 479 539 l 515 525 q 749 402 678 464 q 819 245 819 340 q 732 66 819 140 q 479 -14 644 -7 l 479 -97 l 416 -97 l 416 -12 q 291 6 352 -9 q 189 39 230 20 q 117 76 149 58 q 71 106 85 94 l 56 118 m 306 688 q 331 626 306 654 q 416 567 356 597 l 416 785 q 335 757 363 781 q 306 688 306 732 m 479 78 q 588 116 550 85 q 625 193 625 147 q 595 271 625 241 q 479 339 564 300 l 479 78 z "},"%":{"ha":1105,"x_min":41,"x_max":1064,"o":"m 41 648 q 49 708 41 677 q 74 769 57 739 q 117 822 92 799 q 179 860 142 846 q 262 875 217 875 q 346 860 308 875 q 408 822 383 846 q 451 769 433 799 q 476 708 468 739 q 484 648 484 677 q 262 440 484 440 q 41 648 41 440 m 147 637 q 262 478 147 478 q 378 637 378 478 q 372 705 378 672 q 354 769 366 738 q 318 819 341 800 q 262 838 294 838 q 207 819 231 838 q 171 769 184 800 q 153 705 159 738 q 147 637 147 672 m 221 0 q 519 431 328 144 q 818 861 711 718 l 916 861 q 617 431 810 718 q 318 0 425 144 l 221 0 m 623 195 q 630 254 623 224 q 655 315 638 285 q 697 369 673 345 q 760 407 722 392 q 843 421 798 421 q 926 407 888 421 q 989 369 964 392 q 1031 315 1014 345 q 1056 254 1048 285 q 1064 195 1064 224 q 843 -14 1064 -14 q 623 195 623 -14 m 728 183 q 843 24 728 24 q 958 183 958 24 q 952 251 958 218 q 934 314 947 283 q 898 364 922 345 q 843 383 875 383 q 788 364 811 383 q 752 314 764 345 q 733 251 739 283 q 728 183 728 218 z "},"&":{"ha":926,"x_min":69,"x_max":899,"o":"m 69 227 q 117 356 69 296 q 253 444 165 416 q 172 554 199 507 q 146 647 146 600 q 169 752 146 707 q 233 823 192 797 q 327 862 275 850 q 444 875 380 875 q 524 869 487 875 q 595 848 562 863 q 653 811 629 833 q 691 753 677 788 q 705 675 705 719 q 687 595 705 632 q 638 529 669 557 q 568 480 606 501 q 484 444 530 459 l 517 410 l 673 240 q 701 416 701 319 l 812 416 q 747 163 812 271 l 899 0 l 663 0 l 625 41 q 403 -14 530 -14 q 335 -10 369 -14 q 262 3 302 -6 q 190 30 223 12 q 129 73 157 47 q 85 138 101 98 q 69 227 69 177 m 264 229 q 314 105 264 148 q 437 62 363 62 q 572 98 515 62 l 350 340 l 323 370 q 278 293 292 334 q 264 229 264 252 m 340 681 q 361 593 340 633 q 425 507 382 553 q 547 681 547 571 q 517 777 547 749 q 444 806 487 806 q 407 801 423 806 q 375 785 391 797 q 350 746 359 772 q 340 681 340 720 z "},"'":{"ha":236,"x_min":41,"x_max":195,"o":"m 41 799 q 63 854 41 834 q 118 875 85 875 q 173 854 151 875 q 195 799 195 834 q 168 704 195 779 q 135 583 140 629 l 102 583 q 69 704 96 629 q 41 799 41 779 z "},"(":{"ha":479,"x_min":69,"x_max":452,"o":"m 82 255 q 76 295 82 255 q 69 424 69 335 q 82 592 69 513 q 124 745 95 672 q 197 871 153 818 q 306 955 240 924 q 452 986 371 986 l 452 909 q 359 872 397 909 q 301 765 321 835 q 272 613 281 696 q 264 424 264 531 q 269 270 264 339 q 286 137 273 201 q 320 30 299 73 q 374 -39 341 -14 q 452 -65 408 -65 l 452 -142 q 306 -110 371 -142 q 197 -25 240 -79 q 124 101 153 28 q 82 255 95 175 z "},")":{"ha":479,"x_min":28,"x_max":410,"o":"m 28 -65 q 105 -39 72 -65 q 159 30 138 -14 q 193 137 180 73 q 210 270 205 201 q 215 424 215 339 q 210 577 215 509 q 193 709 205 646 q 159 816 180 773 q 105 884 138 859 q 28 909 72 909 l 28 986 q 174 955 109 986 q 283 871 239 924 q 355 745 326 818 q 397 592 384 672 q 410 424 410 513 q 400 282 410 351 q 373 150 391 214 q 323 34 354 86 q 251 -59 292 -19 q 153 -120 210 -98 q 28 -142 96 -142 l 28 -65 z "},"*":{"ha":380,"x_min":69,"x_max":311,"o":"m 69 730 l 69 749 l 151 755 l 92 825 l 106 839 l 174 779 l 180 861 l 199 861 l 205 779 l 273 839 l 289 825 l 228 755 l 311 749 l 311 730 l 229 724 l 289 656 l 273 640 l 205 701 l 199 619 l 182 619 l 175 703 l 106 642 l 92 656 l 151 724 l 69 730 z "},"+":{"ha":555,"x_min":41,"x_max":514,"o":"m 41 278 l 41 375 q 225 376 159 375 q 236 570 227 479 l 334 570 q 322 378 324 470 q 514 389 423 380 l 514 292 q 321 281 423 283 q 319 97 319 214 l 222 97 q 224 279 222 213 q 41 278 157 278 z "},",":{"ha":243,"x_min":35,"x_max":208,"o":"m 35 68 q 59 123 35 100 q 122 146 84 146 q 184 122 161 146 q 208 58 208 98 q 165 -77 208 -3 q 83 -183 122 -152 l 41 -183 q 114 -14 96 -91 q 53 16 71 -8 q 35 68 35 40 z "},"-":{"ha":486,"x_min":41,"x_max":444,"o":"m 41 278 l 41 375 q 444 389 309 375 l 444 292 q 41 278 309 278 z "},".":{"ha":243,"x_min":35,"x_max":208,"o":"m 35 65 q 59 122 35 98 q 122 146 83 146 q 185 122 162 146 q 208 65 208 98 q 185 10 208 33 q 122 -14 162 -14 q 59 10 83 -14 q 35 65 35 33 z "},"/":{"ha":639,"x_min":69,"x_max":570,"o":"m 69 0 q 204 275 137 120 q 337 586 271 431 q 472 861 404 741 l 570 861 q 435 586 502 741 q 301 275 368 431 q 167 0 235 120 l 69 0 z "},":":{"ha":256,"x_min":41,"x_max":215,"o":"m 41 135 q 65 191 41 168 q 129 215 90 215 q 192 192 169 215 q 215 135 215 168 q 192 79 215 103 q 129 56 168 56 q 65 79 90 56 q 41 135 41 103 m 41 468 q 65 525 41 500 q 129 549 90 549 q 192 525 169 549 q 215 468 215 501 q 192 412 215 436 q 129 389 168 389 q 65 412 90 389 q 41 468 41 436 z "},";":{"ha":250,"x_min":35,"x_max":215,"o":"m 35 68 q 59 123 35 100 q 122 146 84 146 q 184 122 161 146 q 208 58 208 98 q 165 -77 208 -3 q 83 -183 122 -152 l 41 -183 q 114 -14 96 -91 q 53 16 71 -8 q 35 68 35 40 m 41 468 q 65 525 41 500 q 129 549 90 549 q 192 525 169 549 q 215 468 215 501 q 192 412 215 436 q 129 389 168 389 q 65 412 90 389 q 41 468 41 436 z "},"<":{"ha":508,"x_min":41,"x_max":467,"o":"m 41 366 q 422 602 275 498 l 467 519 q 215 368 366 446 q 467 211 375 281 l 422 129 q 41 366 270 236 z "},"=":{"ha":486,"x_min":41,"x_max":444,"o":"m 41 187 l 41 285 q 444 298 309 285 l 444 201 q 41 187 302 187 m 41 375 l 41 472 q 444 486 302 472 l 444 389 q 41 375 309 375 z "},">":{"ha":508,"x_min":41,"x_max":467,"o":"m 41 211 q 293 368 133 281 q 41 519 142 446 l 86 602 q 467 366 236 496 q 86 129 241 238 l 41 211 z "},"?":{"ha":694,"x_min":41,"x_max":653,"o":"m 41 783 q 55 793 46 787 q 96 815 64 800 q 162 843 127 831 q 251 865 197 855 q 363 875 306 875 q 579 813 506 875 q 653 653 653 752 q 639 579 653 612 q 601 525 625 546 q 548 486 578 503 q 486 457 517 468 q 425 435 455 446 q 371 413 395 423 q 334 387 348 402 q 319 351 319 371 q 335 283 319 316 q 382 208 350 251 l 243 208 q 181 287 209 241 q 153 382 153 332 q 171 452 153 421 q 219 503 189 483 q 284 539 248 523 q 355 571 319 556 q 420 602 391 585 q 468 641 450 618 q 486 694 486 665 q 451 780 486 747 q 347 812 416 812 q 259 804 303 812 q 183 783 215 795 q 127 758 152 770 q 90 738 102 746 l 77 729 l 41 783 m 211 65 q 235 122 211 98 q 298 146 259 146 q 361 122 338 146 q 385 65 385 98 q 361 10 385 33 q 298 -14 338 -14 q 235 10 259 -14 q 211 65 211 33 z "},"@":{"ha":1042,"x_min":41,"x_max":1000,"o":"m 41 273 q 107 524 41 408 q 288 709 174 640 q 538 778 403 778 q 780 718 674 778 q 943 554 886 657 q 1000 323 1000 451 q 941 133 1000 201 q 796 64 881 64 q 608 146 669 64 q 487 83 553 103 q 361 64 420 64 q 259 95 299 64 q 220 184 220 127 q 254 306 220 242 q 346 425 288 370 q 491 521 404 481 q 673 570 578 561 q 709 219 675 323 q 825 115 743 115 q 920 173 884 115 q 956 321 956 231 q 904 531 956 437 q 756 679 852 625 q 536 733 661 733 q 361 696 445 733 q 217 597 277 659 q 122 451 157 535 q 86 277 86 368 q 141 63 86 161 q 292 -92 195 -35 q 505 -150 389 -150 q 632 -131 570 -150 l 643 -174 q 504 -195 574 -195 q 268 -131 375 -195 q 101 39 161 -68 q 41 273 41 146 m 364 227 q 386 166 364 188 q 453 144 408 144 q 585 184 513 144 q 543 437 543 271 q 544 463 543 446 q 545 489 545 479 q 416 378 468 456 q 364 227 364 300 z "},"A":{"ha":993,"x_min":28,"x_max":965,"o":"m 28 123 q 66 282 28 188 q 160 467 105 377 q 277 645 214 557 q 385 789 340 733 q 452 868 429 845 l 625 868 q 777 431 677 684 q 965 0 878 177 l 771 0 q 464 768 658 210 q 438 726 454 753 q 380 623 422 699 q 307 483 338 548 q 249 343 275 417 q 222 227 222 270 q 298 155 222 155 q 433 192 355 155 q 567 275 511 229 l 610 193 q 516 129 556 155 q 414 67 476 102 q 291 12 351 31 q 179 -7 231 -7 q 68 25 109 -7 q 28 123 28 57 z "},"B":{"ha":888,"x_min":69,"x_max":833,"o":"m 69 0 l 69 861 l 486 861 q 717 808 635 861 q 799 656 799 755 q 602 461 799 480 q 769 399 705 454 q 833 245 833 344 q 810 139 833 185 q 750 68 786 94 q 666 26 715 42 q 574 5 616 10 q 486 0 532 0 l 69 0 m 250 83 l 458 83 q 590 125 541 83 q 639 250 639 166 q 591 363 639 317 q 458 410 544 410 l 319 410 l 319 493 l 472 493 q 618 633 618 493 q 472 778 618 778 l 250 778 l 250 83 z "},"C":{"ha":840,"x_min":56,"x_max":812,"o":"m 56 412 q 86 581 56 498 q 170 729 117 664 q 305 835 224 795 q 479 875 386 875 q 651 838 573 875 q 772 736 730 800 l 703 686 q 621 755 673 726 q 514 785 568 785 q 405 763 452 785 q 329 705 358 741 q 282 619 300 669 q 257 517 264 568 q 250 406 250 465 q 271 256 250 321 q 327 153 291 191 q 407 96 362 115 q 503 77 451 77 q 651 112 589 77 q 743 196 713 147 l 812 146 q 493 -14 720 -14 q 371 -2 429 -14 q 253 40 312 10 q 152 117 194 71 q 82 240 109 164 q 56 412 56 315 z "},"D":{"ha":930,"x_min":69,"x_max":875,"o":"m 69 0 l 69 861 l 406 861 q 586 838 506 861 q 720 774 667 814 q 809 679 773 734 q 860 564 844 624 q 875 437 875 504 q 847 267 875 342 q 774 142 820 191 q 667 60 729 93 q 538 14 604 27 q 399 0 472 0 l 319 0 l 319 83 l 399 83 q 514 101 465 83 q 602 159 564 119 q 661 272 641 200 q 681 446 681 343 q 673 544 681 498 q 646 634 666 589 q 594 709 626 678 q 510 759 562 740 q 390 778 458 778 l 250 778 l 250 0 l 69 0 z "},"E":{"ha":743,"x_min":69,"x_max":701,"o":"m 69 0 l 69 861 l 701 861 l 701 778 l 250 778 l 250 493 l 583 493 l 583 431 l 250 431 l 250 83 l 701 83 l 701 0 l 69 0 z "},"F":{"ha":729,"x_min":69,"x_max":701,"o":"m 69 0 l 69 861 l 701 861 l 701 778 l 250 778 l 250 493 l 583 493 l 583 431 l 250 431 l 250 0 l 69 0 z "},"G":{"ha":882,"x_min":56,"x_max":812,"o":"m 56 412 q 86 581 56 498 q 170 729 117 664 q 305 835 224 795 q 479 875 386 875 q 651 838 573 875 q 772 736 730 800 l 703 686 q 621 755 673 726 q 514 785 568 785 q 405 763 452 785 q 329 705 358 741 q 282 619 300 669 q 257 517 264 568 q 250 406 250 465 q 271 256 250 321 q 327 153 291 191 q 407 96 362 115 q 503 77 451 77 q 632 94 576 77 l 632 375 l 452 375 l 452 458 l 812 458 l 812 90 q 782 71 808 89 q 723 36 755 54 q 627 2 690 18 q 493 -14 565 -14 q 371 -2 429 -14 q 253 40 312 10 q 152 117 194 71 q 82 240 109 164 q 56 412 56 315 z "},"H":{"ha":916,"x_min":69,"x_max":847,"o":"m 69 0 l 69 863 l 250 863 l 250 486 l 667 486 l 667 861 l 847 861 l 847 424 q 839 306 847 362 q 819 208 831 249 q 792 130 807 166 q 762 71 777 94 q 734 31 747 47 q 715 6 722 14 l 707 -1 l 589 -1 q 597 11 592 3 q 616 53 602 19 q 640 130 629 87 q 658 250 650 173 q 667 416 667 326 l 250 416 l 250 0 l 69 0 z "},"I":{"ha":319,"x_min":69,"x_max":250,"o":"m 69 0 l 69 861 l 250 861 l 250 0 l 69 0 z "},"J":{"ha":507,"x_min":14,"x_max":444,"o":"m 14 35 q 91 70 57 51 q 151 111 125 88 q 195 157 176 134 q 226 211 214 180 q 246 270 239 242 q 257 337 254 298 q 262 409 261 376 q 264 490 264 443 q 260 663 264 570 q 254 808 257 755 l 250 861 l 431 863 q 444 500 444 696 q 443 414 444 450 q 439 338 442 378 q 429 270 435 298 q 412 211 422 241 q 386 158 401 180 q 349 113 371 136 q 299 74 328 90 q 235 40 271 57 q 155 11 199 24 q 56 -14 110 -2 l 14 35 z "},"K":{"ha":903,"x_min":69,"x_max":854,"o":"m 69 0 l 69 863 l 250 863 l 250 269 q 440 385 359 325 q 567 501 522 446 q 634 606 612 557 q 656 697 656 654 q 640 764 656 736 q 595 807 623 793 l 595 879 q 667 872 631 879 q 736 849 703 865 q 794 810 769 833 q 834 753 819 787 q 850 676 850 718 q 787 511 850 593 q 590 340 724 430 l 854 0 l 639 0 l 444 257 q 250 158 336 197 l 250 0 l 69 0 z "},"L":{"ha":652,"x_min":69,"x_max":625,"o":"m 69 0 l 69 861 l 250 861 l 250 83 l 625 83 l 625 0 l 69 0 z "},"M":{"ha":1132,"x_min":41,"x_max":1090,"o":"m 41 256 q 98 544 41 395 q 264 861 155 692 l 458 861 l 597 180 l 785 861 l 965 861 l 1090 0 l 909 0 l 812 643 l 632 0 l 458 0 l 298 764 q 222 335 222 574 q 278 0 222 174 l 85 0 q 41 256 41 130 z "},"N":{"ha":958,"x_min":69,"x_max":903,"o":"m 69 0 l 69 861 l 278 861 l 688 90 q 729 386 729 209 q 694 645 729 521 q 604 861 659 769 l 799 861 q 903 518 903 665 q 886 361 903 439 q 847 226 870 283 q 800 121 823 168 q 760 43 776 75 q 743 0 743 11 l 625 0 l 250 701 l 250 0 l 69 0 z "},"O":{"ha":958,"x_min":56,"x_max":903,"o":"m 56 386 q 71 525 56 456 q 121 657 87 594 q 204 769 155 721 q 323 846 252 817 q 479 875 395 875 q 635 846 564 875 q 755 769 706 817 q 838 657 804 721 q 887 525 871 594 q 903 386 903 456 q 878 223 903 294 q 813 108 853 152 q 716 36 772 64 q 602 -3 660 8 q 479 -14 545 -14 q 357 -3 414 -14 q 242 36 299 8 q 145 108 186 64 q 80 223 105 152 q 56 386 56 294 m 250 367 q 312 140 250 218 q 479 62 374 62 q 646 140 585 62 q 708 367 708 218 q 695 524 708 450 q 656 661 682 598 q 585 762 630 724 q 479 799 539 799 q 374 762 420 799 q 302 661 329 724 q 263 524 276 598 q 250 367 250 450 z "},"P":{"ha":903,"x_min":69,"x_max":861,"o":"m 69 0 l 69 861 l 473 861 q 547 861 521 861 q 621 856 574 860 q 695 844 667 852 q 759 821 724 837 q 814 783 794 805 q 847 726 833 761 q 861 647 861 691 q 842 564 861 606 q 793 488 823 522 q 716 417 763 453 q 628 354 670 380 q 529 297 586 328 q 433 249 471 267 q 343 207 394 231 q 319 196 327 199 l 319 321 q 485 409 423 372 q 590 483 547 446 q 650 554 633 519 q 667 633 667 589 q 658 687 667 663 q 637 725 650 711 q 606 751 625 740 q 570 767 586 762 q 533 774 555 772 q 500 778 511 777 q 473 778 489 778 l 250 778 l 250 0 l 69 0 z "},"Q":{"ha":958,"x_min":56,"x_max":903,"o":"m 56 386 q 71 525 56 456 q 121 657 87 594 q 204 769 155 721 q 323 846 252 817 q 479 875 395 875 q 635 846 564 875 q 755 769 706 817 q 838 657 804 721 q 887 525 871 594 q 903 386 903 456 q 884 241 903 306 q 833 134 865 177 q 757 60 802 91 q 664 14 712 30 q 561 -9 616 -3 q 571 -47 567 -35 q 584 -79 574 -60 q 604 -108 593 -99 q 634 -125 614 -117 q 679 -132 653 -132 q 739 -118 700 -132 l 739 -180 q 599 -208 671 -208 q 513 -194 551 -208 q 450 -157 474 -179 q 409 -107 425 -135 q 385 -54 392 -79 q 378 -7 378 -29 q 279 19 324 1 q 191 67 233 36 q 120 141 149 98 q 73 247 90 184 q 56 386 56 309 m 250 367 q 312 140 250 218 q 479 62 374 62 q 646 140 585 62 q 708 367 708 218 q 695 524 708 450 q 656 661 682 598 q 585 762 630 724 q 479 799 539 799 q 374 762 420 799 q 302 661 329 724 q 263 524 276 598 q 250 367 250 450 z "},"R":{"ha":937,"x_min":69,"x_max":909,"o":"m 69 0 l 250 0 l 250 778 l 478 778 q 681 646 681 778 q 319 317 681 503 l 319 192 q 465 268 407 234 l 688 0 l 909 0 l 625 347 q 815 498 756 425 q 875 646 875 571 q 866 709 875 680 q 845 759 858 738 q 809 796 831 779 q 765 823 786 812 q 712 841 744 833 q 655 853 680 849 q 595 859 631 857 q 536 861 559 861 q 478 861 513 861 l 69 861 l 69 0 z "},"S":{"ha":847,"x_min":41,"x_max":806,"o":"m 41 118 l 85 196 q 100 183 90 191 q 145 154 111 175 q 217 118 180 134 q 312 90 254 102 q 429 77 370 77 q 564 109 517 77 q 611 193 611 141 q 567 283 611 252 q 372 379 523 315 q 306 409 334 395 q 243 442 277 422 q 185 481 209 461 q 140 526 161 501 q 108 579 119 550 q 97 640 97 608 q 183 811 97 747 q 424 875 269 875 q 749 764 602 875 l 705 685 q 570 756 646 727 q 415 785 494 785 q 324 760 357 785 q 292 688 292 736 q 337 606 292 644 q 501 525 383 568 q 735 402 664 464 q 806 245 806 340 q 783 147 806 193 q 717 65 760 101 q 602 7 673 28 q 441 -14 531 -14 q 303 0 370 -14 q 190 33 235 14 q 110 72 144 52 q 58 104 75 91 l 41 118 z "},"T":{"ha":777,"x_min":28,"x_max":750,"o":"m 28 778 l 28 861 l 750 861 l 750 778 l 486 778 l 486 0 l 292 0 l 292 778 l 28 778 z "},"U":{"ha":944,"x_min":62,"x_max":882,"o":"m 62 322 q 85 514 62 379 q 130 755 107 648 l 153 861 l 292 861 q 257 300 257 452 q 268 209 257 250 q 303 134 279 168 q 370 81 327 100 q 472 62 413 62 q 574 81 531 62 q 641 134 617 100 q 676 209 665 168 q 688 300 688 250 q 679 508 688 368 q 662 755 670 648 l 653 861 l 791 861 q 817 743 802 815 q 857 525 831 671 q 882 322 882 379 q 854 163 882 229 q 771 59 826 98 q 643 4 716 21 q 472 -14 570 -14 q 301 4 374 -14 q 173 59 228 21 q 90 163 118 98 q 62 322 62 229 z "},"V":{"ha":916,"x_min":28,"x_max":875,"o":"m 28 861 l 215 861 l 447 103 q 549 246 509 184 q 623 376 589 307 q 672 514 656 446 q 688 659 688 583 q 682 731 688 696 q 667 789 675 766 q 650 829 659 812 q 635 853 642 846 l 629 861 l 819 861 q 831 835 821 859 q 847 798 842 812 q 860 758 852 784 q 871 703 867 732 q 875 642 875 674 q 853 489 875 564 q 795 355 831 414 q 717 241 760 295 q 631 146 674 187 q 553 74 589 106 q 495 22 517 43 q 473 -7 473 1 l 296 -7 l 28 861 z "},"W":{"ha":1139,"x_min":35,"x_max":1097,"o":"m 35 861 l 215 861 l 326 218 l 500 861 l 673 861 l 827 97 q 917 526 917 321 q 861 861 917 688 l 1054 861 q 1097 606 1097 731 q 1037 323 1097 469 q 861 0 976 178 l 667 0 l 534 681 l 354 0 l 174 0 l 35 861 z "},"X":{"ha":833,"x_min":28,"x_max":806,"o":"m 28 0 l 330 418 l 41 861 l 243 861 l 447 549 l 667 861 l 771 861 l 497 472 l 806 0 l 604 0 l 380 342 l 132 0 l 28 0 z "},"Y":{"ha":903,"x_min":41,"x_max":875,"o":"m 41 663 q 65 755 41 714 q 126 820 88 796 q 208 856 164 844 q 298 868 252 868 l 298 796 q 250 745 270 781 q 229 660 229 708 q 514 322 229 486 l 694 861 l 875 861 l 583 0 l 410 0 l 486 215 q 155 425 269 315 q 41 663 41 534 z "},"Z":{"ha":791,"x_min":41,"x_max":750,"o":"m 41 0 l 41 62 l 511 778 l 72 778 l 72 861 l 743 861 l 743 799 l 272 83 l 750 83 l 750 0 l 41 0 z "},"[":{"ha":437,"x_min":69,"x_max":410,"o":"m 69 -139 l 69 986 l 410 986 l 410 909 l 264 909 l 264 -62 l 410 -62 l 410 -139 l 69 -139 z "},"\\":{"ha":639,"x_min":69,"x_max":570,"o":"m 69 861 l 167 861 q 301 586 235 741 q 435 275 368 431 q 570 0 502 120 l 472 0 q 337 275 404 120 q 204 586 271 431 q 69 861 137 741 z "},"]":{"ha":437,"x_min":28,"x_max":368,"o":"m 28 -62 l 174 -62 l 174 909 l 28 909 l 28 986 l 368 986 l 368 -139 l 28 -139 l 28 -62 z "},"^":{"ha":472,"x_min":62,"x_max":410,"o":"m 62 278 q 109 335 91 314 q 162 391 126 357 q 236 453 197 425 q 310 391 275 425 q 363 335 346 357 q 410 278 381 314 l 382 264 q 309 299 353 277 q 236 335 264 321 q 163 299 208 321 q 90 264 119 277 l 62 278 z "},"_":{"ha":486,"x_min":41,"x_max":444,"o":"m 41 -41 q 444 -28 309 -41 l 444 -125 q 41 -139 302 -139 l 41 -41 z "},"`":{"ha":358,"x_min":62,"x_max":302,"o":"m 62 808 q 78 845 62 829 q 117 861 94 861 q 171 835 146 861 q 302 685 247 756 l 282 667 q 103 754 113 749 q 62 808 62 772 z "},"a":{"ha":798,"x_min":41,"x_max":771,"o":"m 41 139 q 66 255 41 195 q 139 372 91 315 q 250 477 186 429 q 398 557 313 525 q 575 597 484 589 q 657 286 605 448 q 771 0 709 123 l 590 0 q 494 236 543 90 q 422 500 446 382 q 274 368 333 460 q 215 187 215 275 q 243 111 215 138 q 326 83 271 83 q 479 132 402 83 l 500 77 q 370 9 445 32 q 218 -14 296 -14 q 92 26 142 -14 q 41 139 41 66 z "},"b":{"ha":722,"x_min":56,"x_max":681,"o":"m 56 0 l 56 861 l 222 861 l 222 110 q 340 83 290 83 q 464 136 420 83 q 507 288 507 188 q 449 446 507 376 q 271 534 391 515 l 271 597 q 455 552 375 585 q 584 473 535 519 q 656 372 632 427 q 681 257 681 318 q 606 57 681 127 q 411 -14 532 -14 q 222 40 298 -14 l 222 0 l 56 0 z "},"c":{"ha":639,"x_min":41,"x_max":604,"o":"m 41 282 q 78 435 41 363 q 189 552 115 506 q 358 597 262 597 q 487 574 426 597 q 576 507 548 550 l 528 472 q 474 516 508 498 q 403 534 439 534 q 215 278 215 534 q 264 106 215 163 q 389 49 313 49 q 492 74 449 49 q 555 132 534 98 l 604 97 q 510 15 572 44 q 368 -14 448 -14 q 281 -5 323 -14 q 194 24 238 3 q 116 78 149 45 q 62 163 83 110 q 41 282 41 216 z "},"d":{"ha":722,"x_min":41,"x_max":667,"o":"m 41 257 q 66 372 41 318 q 139 473 90 427 q 267 552 187 519 q 452 597 347 585 l 452 534 q 273 446 331 515 q 215 288 215 376 q 258 136 215 188 q 382 83 302 83 q 500 110 433 83 l 500 861 l 667 861 l 667 0 l 500 0 l 500 40 q 311 -14 424 -14 q 116 57 191 -14 q 41 257 41 127 z "},"e":{"ha":722,"x_min":41,"x_max":681,"o":"m 41 281 q 80 436 41 365 q 194 553 119 508 q 368 597 270 597 q 410 596 389 597 q 464 587 431 594 q 524 566 496 579 q 582 529 552 553 q 633 472 612 505 q 667 389 654 439 q 681 277 681 338 l 268 277 l 268 339 l 500 339 q 361 534 496 534 q 215 277 215 534 q 263 105 215 161 q 389 49 311 49 q 502 74 450 49 q 576 139 553 100 l 625 104 q 528 19 593 51 q 375 -14 462 -14 q 244 3 303 -14 q 139 54 185 20 q 67 146 93 88 q 41 281 41 204 z "},"f":{"ha":465,"x_min":14,"x_max":465,"o":"m 14 521 l 14 583 l 125 583 l 125 629 q 148 750 125 701 q 218 826 172 799 q 324 864 265 852 q 465 875 383 875 l 465 812 q 377 805 409 812 q 325 774 345 798 q 298 713 304 750 q 292 611 292 676 l 292 583 l 452 583 l 452 521 l 292 521 l 292 0 l 125 0 l 125 521 l 14 521 z "},"g":{"ha":722,"x_min":41,"x_max":667,"o":"m 41 326 q 116 527 41 456 q 311 597 191 597 q 500 543 422 597 l 500 583 l 667 583 l 667 172 q 664 84 667 122 q 653 5 661 47 q 629 -68 644 -37 q 587 -132 613 -100 q 524 -190 561 -165 q 435 -238 488 -215 q 315 -278 382 -260 l 281 -235 q 359 -196 326 -217 q 416 -153 393 -174 q 455 -102 439 -132 q 480 -48 471 -73 q 493 15 489 -23 q 499 82 498 53 q 500 157 500 111 l 500 473 q 382 500 433 500 q 258 448 302 500 q 215 296 215 395 q 273 138 215 207 q 452 49 331 68 l 452 -14 q 267 32 347 -1 q 139 111 187 64 q 66 211 90 157 q 41 326 41 265 z "},"h":{"ha":729,"x_min":56,"x_max":681,"o":"m 56 0 l 56 861 l 222 861 l 222 542 q 424 597 316 597 q 526 583 480 597 q 607 538 572 568 q 662 459 642 509 q 681 343 681 409 q 611 0 681 233 l 493 0 q 507 235 507 172 q 491 395 507 337 q 443 476 475 453 q 355 500 410 500 q 222 472 296 500 l 222 0 l 56 0 z "},"i":{"ha":277,"x_min":52,"x_max":225,"o":"m 52 760 q 76 816 52 792 q 139 840 100 840 q 202 817 179 840 q 225 760 225 793 q 202 704 225 728 q 139 681 179 681 q 76 704 100 681 q 52 760 52 728 m 56 0 l 56 583 l 222 583 l 222 0 l 56 0 z "},"j":{"ha":284,"x_min":-139,"x_max":229,"o":"m -139 -250 q -67 -204 -98 -229 q -15 -154 -37 -179 q 21 -96 6 -130 q 43 -33 35 -62 q 56 40 52 -4 q 61 120 60 85 q 62 212 62 156 q 59 385 62 292 q 52 530 56 477 l 49 583 l 215 585 q 229 222 229 410 q 220 62 229 127 q 190 -58 212 -3 q 129 -153 169 -113 q 32 -227 89 -193 q -111 -292 -25 -260 l -139 -250 m 45 760 q 69 816 45 792 q 132 840 93 840 q 195 817 172 840 q 218 760 218 793 q 195 704 218 728 q 132 681 172 681 q 69 704 93 681 q 45 760 45 728 z "},"k":{"ha":708,"x_min":56,"x_max":673,"o":"m 56 0 l 56 861 l 222 861 l 222 231 q 413 353 333 283 q 493 478 493 422 q 480 514 493 500 q 444 534 467 529 l 444 597 q 501 594 473 597 q 560 582 530 591 q 614 559 591 573 q 652 523 637 546 q 667 472 667 500 q 492 275 667 370 l 673 0 l 486 0 l 350 203 l 222 147 l 222 0 l 56 0 z "},"l":{"ha":277,"x_min":56,"x_max":222,"o":"m 56 0 l 56 861 l 222 861 l 222 0 l 56 0 z "},"m":{"ha":1090,"x_min":56,"x_max":1042,"o":"m 56 0 l 56 583 l 222 583 l 222 542 q 312 585 273 572 q 396 597 350 597 q 591 517 530 597 q 799 597 698 597 q 978 536 914 597 q 1042 343 1042 474 q 972 0 1042 230 l 854 0 q 868 235 868 164 q 852 395 868 336 q 807 477 836 454 q 730 500 778 500 q 618 469 675 500 q 639 343 639 416 q 570 0 639 230 l 452 0 q 465 235 465 164 q 449 395 465 336 q 404 477 433 454 q 328 500 375 500 q 222 472 273 500 l 222 0 l 56 0 z "},"n":{"ha":729,"x_min":56,"x_max":681,"o":"m 56 0 l 56 583 l 222 583 l 222 542 q 424 597 316 597 q 526 583 480 597 q 607 538 572 568 q 662 459 642 509 q 681 343 681 409 q 611 0 681 233 l 493 0 q 507 235 507 172 q 491 395 507 337 q 443 476 475 453 q 355 500 410 500 q 222 472 296 500 l 222 0 l 56 0 z "},"o":{"ha":722,"x_min":41,"x_max":681,"o":"m 41 264 q 63 384 41 325 q 124 491 85 443 q 226 568 164 538 q 361 597 288 597 q 496 568 434 597 q 597 491 557 538 q 659 384 637 443 q 681 264 681 325 q 661 151 681 201 q 609 71 641 101 q 534 21 578 41 q 449 -6 491 1 q 361 -14 406 -14 q 273 -6 315 -14 q 188 21 231 1 q 113 71 144 41 q 61 151 81 101 q 41 264 41 201 m 215 250 q 254 99 215 149 q 361 49 294 49 q 468 99 428 49 q 507 250 507 149 q 500 349 507 302 q 477 439 493 396 q 432 509 462 483 q 361 534 402 534 q 290 509 319 534 q 244 439 260 483 q 222 349 229 396 q 215 250 215 302 z "},"p":{"ha":722,"x_min":56,"x_max":681,"o":"m 56 -278 l 56 583 l 222 583 l 222 543 q 411 597 300 597 q 606 527 532 597 q 681 326 681 456 q 656 211 681 265 q 584 111 632 157 q 455 32 535 64 q 271 -14 375 -1 l 271 49 q 449 138 391 68 q 507 296 507 207 q 464 448 507 395 q 340 500 420 500 q 222 473 290 500 l 222 -278 l 56 -278 z "},"q":{"ha":722,"x_min":41,"x_max":667,"o":"m 41 326 q 116 527 41 456 q 311 597 191 597 q 500 543 422 597 l 500 583 l 667 583 l 667 -278 l 500 -278 l 500 473 q 382 500 433 500 q 258 448 302 500 q 215 296 215 395 q 273 138 215 207 q 452 49 331 68 l 452 -14 q 267 32 347 -1 q 139 111 187 64 q 66 211 90 157 q 41 326 41 265 z "},"r":{"ha":521,"x_min":56,"x_max":507,"o":"m 56 0 l 56 583 l 222 583 l 222 542 q 379 597 300 597 q 507 549 458 597 l 424 444 q 372 474 403 463 q 313 486 340 486 q 222 472 267 486 l 222 0 l 56 0 z "},"s":{"ha":667,"x_min":14,"x_max":625,"o":"m 14 78 l 49 132 q 62 123 54 129 q 98 103 71 117 q 156 78 126 89 q 231 58 186 67 q 319 49 275 49 q 458 125 458 49 q 421 180 458 160 q 265 237 384 201 q 117 313 165 268 q 69 431 69 357 q 138 551 69 505 q 332 597 208 597 q 604 521 484 597 l 571 465 q 336 534 455 534 q 236 468 236 534 q 269 420 236 439 q 397 372 302 400 q 502 334 458 355 q 569 292 545 312 q 605 248 592 272 q 622 206 618 224 q 625 167 625 189 q 552 36 625 85 q 335 -14 479 -14 q 224 -4 278 -14 q 134 19 170 5 q 69 45 97 32 q 27 68 41 59 l 14 78 z "},"t":{"ha":465,"x_min":14,"x_max":437,"o":"m 14 521 l 14 583 l 125 583 l 125 750 l 292 750 l 292 583 l 437 583 l 437 521 l 292 521 l 292 250 q 293 177 292 205 q 300 124 295 149 q 315 87 306 100 q 341 64 324 74 q 381 52 359 55 q 437 49 404 49 l 437 -14 q 295 -3 351 -14 q 199 36 239 8 q 142 111 159 63 q 125 232 125 159 l 125 521 l 14 521 z "},"u":{"ha":722,"x_min":41,"x_max":681,"o":"m 41 220 q 55 350 41 259 q 82 512 68 441 l 96 583 l 249 583 q 215 204 215 310 q 248 90 215 131 q 361 49 281 49 q 507 204 507 49 q 497 346 507 251 q 477 512 487 441 l 467 583 l 627 583 q 681 220 681 309 q 664 129 681 169 q 619 62 648 88 q 549 18 590 35 q 461 -6 508 1 q 361 -14 415 -14 q 260 -6 307 -14 q 173 18 214 1 q 103 62 132 35 q 58 129 75 88 q 41 220 41 169 z "},"v":{"ha":722,"x_min":28,"x_max":681,"o":"m 28 583 l 208 583 l 375 69 q 474 245 441 149 q 507 431 507 342 q 498 510 507 472 q 479 566 488 548 l 469 583 l 643 583 l 652 560 q 667 525 663 537 q 676 485 671 512 q 681 431 681 458 q 665 322 681 374 q 623 230 649 269 q 567 157 597 191 q 505 97 536 122 q 448 53 473 72 q 406 20 422 34 q 390 0 390 7 l 225 0 l 28 583 z "},"w":{"ha":993,"x_min":28,"x_max":951,"o":"m 28 583 l 199 583 l 279 109 l 411 583 l 574 583 l 694 69 q 778 385 778 195 q 767 490 778 441 q 746 562 757 540 l 736 583 l 917 583 q 933 545 927 562 q 945 490 939 528 q 951 404 951 452 q 939 315 951 359 q 905 235 926 271 q 860 168 885 200 q 811 109 836 135 q 766 63 786 83 q 732 26 745 42 q 720 0 720 9 l 553 0 l 441 447 l 315 0 l 136 0 l 28 583 z "},"x":{"ha":625,"x_min":14,"x_max":611,"o":"m 14 0 l 236 271 l 21 583 l 208 583 l 336 393 l 493 583 l 576 583 l 376 338 l 611 0 l 424 0 l 275 215 l 97 0 l 14 0 z "},"y":{"ha":736,"x_min":41,"x_max":694,"o":"m 41 385 q 62 479 41 438 q 119 544 83 519 q 200 582 155 568 q 298 597 245 595 l 298 534 q 215 429 215 514 q 464 90 215 219 l 534 583 l 694 583 l 628 92 q 581 -66 616 3 q 500 -176 545 -135 q 396 -243 455 -216 q 287 -279 338 -269 q 183 -292 237 -290 l 183 -229 q 262 -216 226 -227 q 325 -190 299 -205 q 371 -155 350 -176 q 406 -115 393 -134 q 429 -73 418 -97 q 445 -34 440 -49 q 454 0 449 -20 q 290 88 359 46 q 161 177 220 130 q 72 277 102 225 q 41 385 41 330 z "},"z":{"ha":625,"x_min":41,"x_max":583,"o":"m 41 0 l 41 49 l 361 521 l 62 521 l 62 583 l 562 583 l 562 534 l 243 62 l 583 62 l 583 0 l 41 0 z "},"{":{"ha":548,"x_min":41,"x_max":521,"o":"m 41 396 l 41 452 q 94 461 74 452 q 124 490 115 470 q 136 531 134 511 q 139 586 139 552 q 140 642 139 618 q 145 700 141 665 q 156 760 149 734 q 177 818 163 786 q 211 872 191 849 q 259 917 230 895 q 325 954 288 940 q 411 977 361 968 q 521 986 461 986 l 521 909 q 451 898 481 909 q 400 864 420 887 q 366 811 380 840 q 346 739 353 782 q 336 654 339 696 q 334 555 334 612 q 301 454 334 484 q 201 424 268 424 q 301 394 268 424 q 334 292 334 363 q 336 193 334 235 q 346 108 339 151 q 366 36 353 65 q 400 -17 380 7 q 451 -51 420 -40 q 521 -62 481 -62 l 521 -139 q 411 -130 461 -139 q 325 -107 361 -121 q 259 -70 288 -93 q 211 -25 230 -47 q 177 30 191 -2 q 156 87 163 61 q 145 147 149 113 q 140 205 141 182 q 139 261 139 229 q 136 316 139 295 q 124 357 134 336 q 94 387 115 378 q 41 396 74 396 z "},"|":{"ha":222,"x_min":69,"x_max":153,"o":"m 69 -69 q 69 930 79 431 l 153 930 q 153 -69 142 431 l 69 -69 z "},"}":{"ha":548,"x_min":28,"x_max":507,"o":"m 28 -62 q 98 -51 68 -62 q 149 -17 128 -40 q 182 36 169 7 q 203 108 196 65 q 212 193 210 151 q 215 292 215 235 q 248 394 215 363 q 347 424 281 424 q 248 454 281 424 q 215 555 215 484 q 212 654 215 612 q 203 739 210 696 q 182 811 196 782 q 149 864 169 840 q 98 898 128 887 q 28 909 68 909 l 28 986 q 137 977 87 986 q 224 954 187 968 q 290 917 260 940 q 338 872 319 895 q 371 818 357 849 q 392 760 385 786 q 404 700 399 734 q 409 642 408 665 q 410 586 410 618 q 412 531 410 552 q 425 490 415 511 q 454 461 434 470 q 507 452 475 452 l 507 396 q 454 387 475 396 q 425 357 434 378 q 412 316 415 336 q 410 261 410 295 q 409 205 410 229 q 404 147 408 182 q 392 87 399 113 q 371 30 385 61 q 338 -25 357 -2 q 290 -70 319 -47 q 224 -107 260 -93 q 137 -130 187 -121 q 28 -139 87 -139 l 28 -62 z "},"~":{"ha":511,"x_min":41,"x_max":469,"o":"m 41 277 q 189 404 58 404 q 291 382 216 404 q 390 361 367 361 q 419 370 401 361 q 446 397 437 379 l 469 389 q 448 323 462 349 q 415 284 434 296 q 379 268 396 272 q 342 264 363 264 q 230 287 315 264 q 127 310 144 310 q 94 301 108 310 q 61 268 79 293 l 41 277 z "}," ":{"ha":277,"x_min":0,"x_max":0,"o":""},"¡":{"ha":319,"x_min":69,"x_max":250,"o":"m 69 -278 l 90 375 l 229 375 l 250 -278 l 69 -278 m 72 518 q 96 574 72 550 q 160 597 121 597 q 222 574 199 597 q 245 518 245 550 q 223 461 245 485 q 160 437 200 437 q 96 461 121 437 q 72 518 72 486 z "},"¢":{"ha":673,"x_min":56,"x_max":618,"o":"m 56 282 q 76 395 56 340 q 134 494 97 450 q 229 566 172 538 q 354 597 286 594 l 354 681 l 416 681 l 416 595 q 519 566 473 589 q 590 507 566 543 l 542 472 q 488 516 522 498 q 416 534 454 534 l 416 49 q 510 76 471 52 q 570 132 550 100 l 618 97 q 537 22 591 50 q 416 -12 484 -6 l 416 -97 l 354 -97 l 354 -12 q 271 1 311 -9 q 191 33 231 11 q 121 87 151 55 q 74 170 92 119 q 56 282 56 220 m 229 278 q 263 128 229 183 q 354 56 297 73 l 354 526 q 229 278 229 489 z "},"£":{"ha":791,"x_min":56,"x_max":736,"o":"m 56 0 l 56 83 q 158 199 121 134 q 195 313 195 265 q 186 368 195 340 l 56 368 l 56 431 l 158 431 q 139 463 156 435 q 117 502 122 490 q 101 538 112 513 q 87 587 91 563 q 83 640 83 612 q 169 811 83 747 q 410 875 254 875 q 721 778 593 875 l 677 699 q 551 761 623 736 q 401 785 479 785 q 311 760 343 785 q 278 688 278 736 q 296 596 278 637 q 339 512 313 555 q 376 431 366 468 l 528 431 l 528 368 l 387 368 l 389 340 q 357 202 389 261 q 256 83 325 143 l 736 83 l 736 0 l 56 0 z "},"¤":{"ha":1000,"x_min":56,"x_max":945,"o":"m 56 146 l 56 208 l 153 208 l 153 313 l 56 313 l 56 375 l 153 375 l 153 861 l 557 861 q 631 861 604 861 q 704 856 657 860 q 779 844 751 852 q 842 821 807 837 q 897 783 878 805 q 931 726 917 761 q 945 647 945 691 q 877 468 945 544 q 688 352 810 392 q 403 313 566 313 l 334 313 l 334 208 l 528 208 l 528 146 l 334 146 l 334 0 l 153 0 l 153 146 l 56 146 m 334 375 l 390 375 q 528 391 466 375 q 630 433 590 407 q 699 493 671 458 q 738 562 726 527 q 750 633 750 597 q 742 687 750 663 q 721 725 733 711 q 689 751 709 740 q 654 767 669 762 q 616 774 638 772 q 583 778 594 777 q 557 778 572 778 l 334 778 l 334 375 z "},"¥":{"ha":944,"x_min":56,"x_max":889,"o":"m 56 663 q 79 755 56 714 q 140 820 102 796 q 222 856 178 844 q 313 868 267 868 l 313 796 q 263 744 284 781 q 243 660 243 707 q 312 538 243 593 q 555 404 381 484 l 708 861 l 889 861 l 715 347 l 847 347 l 847 285 l 693 285 l 668 208 l 847 208 l 847 146 l 647 146 l 597 0 l 424 0 l 472 146 l 236 146 l 236 208 l 493 208 l 519 285 l 236 285 l 236 347 l 429 347 q 304 397 355 375 q 202 449 252 420 q 122 509 152 479 q 74 578 92 538 q 56 663 56 617 z "},"¦":{"ha":222,"x_min":69,"x_max":153,"o":"m 69 -69 q 77 375 77 135 l 146 375 q 153 -69 146 117 l 69 -69 m 69 930 l 153 930 q 146 486 146 745 l 77 486 q 69 930 77 726 z "},"§":{"ha":875,"x_min":56,"x_max":819,"o":"m 56 476 q 154 664 56 591 q 111 779 111 718 q 197 950 111 886 q 437 1014 282 1014 q 762 903 616 1014 l 720 823 q 584 895 659 865 q 429 924 508 924 q 338 899 371 924 q 306 827 306 875 q 352 745 306 783 q 515 664 397 707 q 749 541 678 603 q 819 385 819 479 q 721 196 819 269 q 764 82 764 144 q 678 -89 764 -25 q 437 -153 593 -153 q 113 -41 259 -153 l 155 37 q 291 -34 215 -5 q 446 -62 366 -62 q 537 -38 505 -62 q 570 35 570 -14 q 524 116 570 78 q 359 197 477 154 q 126 320 197 258 q 56 476 56 381 m 250 529 q 294 439 250 471 q 489 343 338 408 q 612 283 575 305 q 625 332 625 308 q 623 360 625 347 q 613 385 621 373 q 598 406 605 397 q 573 427 591 415 q 542 447 555 439 q 499 468 530 454 q 449 491 469 482 q 386 518 429 500 q 262 578 300 556 q 250 529 250 557 z "},"¨":{"ha":493,"x_min":49,"x_max":444,"o":"m 49 753 q 71 805 49 784 q 122 827 92 827 q 174 805 153 827 q 195 753 195 784 q 174 702 195 723 q 122 681 153 681 q 71 702 92 681 q 49 753 49 723 m 298 753 q 320 805 298 783 q 372 827 342 827 q 424 805 403 827 q 444 753 444 784 q 424 702 444 722 q 372 681 403 681 q 320 702 342 681 q 298 753 298 723 z "},"©":{"ha":956,"x_min":41,"x_max":914,"o":"m 76 260 q 58 301 76 260 q 41 431 41 342 q 76 601 41 519 q 168 743 110 683 q 307 839 226 803 q 478 875 389 875 q 698 814 597 875 q 857 651 799 753 q 914 431 914 549 q 857 210 914 312 q 698 47 799 108 q 478 -14 597 -14 q 307 22 389 -14 q 168 118 226 58 q 76 260 110 178 m 134 631 q 108 585 134 631 q 82 431 82 538 q 134 230 82 323 q 278 82 186 137 q 478 26 369 26 q 678 82 587 26 q 822 230 770 137 q 873 431 873 323 q 822 631 873 538 q 678 780 770 724 q 478 835 587 835 q 278 780 369 835 q 134 631 186 724 m 249 421 q 277 546 249 486 q 362 644 306 605 q 488 682 418 682 q 585 661 541 682 q 653 603 629 640 l 614 575 q 567 614 597 597 q 507 631 537 631 q 434 612 465 631 q 388 562 404 594 q 365 495 372 530 q 358 416 358 459 q 398 277 358 323 q 500 231 438 231 q 584 251 549 231 q 636 298 619 271 l 675 269 q 494 179 621 179 q 426 186 458 179 q 360 210 393 193 q 303 254 327 227 q 264 323 279 281 q 249 421 249 366 z "},"ª":{"ha":652,"x_min":56,"x_max":597,"o":"m 56 298 l 56 361 l 597 361 l 597 298 l 56 298 m 61 543 q 89 648 61 593 q 166 749 117 702 q 287 830 214 796 q 441 871 360 864 q 500 648 463 764 q 582 444 537 532 l 453 444 q 384 612 419 508 q 332 802 349 717 q 226 707 268 774 q 184 578 184 641 q 204 524 184 543 q 264 504 224 504 q 374 539 318 504 l 387 498 q 186 435 310 435 q 97 463 132 435 q 61 543 61 492 z "},"«":{"ha":701,"x_min":41,"x_max":660,"o":"m 41 328 l 43 334 q 379 559 231 446 l 410 529 q 225 330 340 432 q 410 132 342 227 l 379 102 q 41 328 235 212 m 292 328 l 293 334 q 629 559 481 446 l 660 529 q 475 330 591 433 q 660 132 593 226 l 629 102 q 292 328 486 212 z "},"¬":{"ha":794,"x_min":41,"x_max":725,"o":"m 41 298 l 41 389 q 725 410 372 389 q 725 94 719 252 l 628 94 q 628 313 622 203 q 41 298 418 298 z "},"­":{"ha":486,"x_min":41,"x_max":444,"o":"m 41 278 l 41 375 q 444 389 309 375 l 444 292 q 41 278 309 278 z "},"®":{"ha":956,"x_min":41,"x_max":914,"o":"m 76 260 q 58 301 76 260 q 41 431 41 342 q 76 601 41 519 q 168 743 110 683 q 307 839 226 803 q 478 875 389 875 q 698 814 597 875 q 857 651 799 753 q 914 431 914 549 q 857 210 914 312 q 698 47 799 108 q 478 -14 597 -14 q 307 22 389 -14 q 168 118 226 58 q 76 260 110 178 m 134 631 q 108 585 134 631 q 82 431 82 538 q 134 230 82 323 q 278 82 186 137 q 478 26 369 26 q 678 82 587 26 q 822 230 770 137 q 873 431 873 323 q 822 631 873 538 q 678 780 770 724 q 478 835 587 835 q 278 780 369 835 q 134 631 186 724 m 260 187 l 361 187 l 361 627 l 490 627 q 604 551 604 627 q 400 367 604 471 l 400 296 q 484 339 424 307 l 608 187 l 733 187 l 574 383 q 714 551 714 467 q 706 596 714 576 q 687 628 699 616 q 655 650 675 641 q 618 664 635 659 q 575 670 602 668 q 533 673 549 673 q 490 673 517 673 l 260 673 l 260 187 z "},"¯":{"ha":458,"x_min":28,"x_max":431,"o":"m 28 715 l 28 778 l 431 778 l 431 715 l 28 715 z "},"°":{"ha":454,"x_min":41,"x_max":412,"o":"m 41 675 q 96 815 41 755 q 228 875 151 875 q 359 815 306 875 q 412 675 412 755 q 360 551 412 597 q 228 504 309 504 q 95 551 149 504 q 41 675 41 598 m 109 675 q 143 599 109 627 q 228 571 178 571 q 313 599 281 571 q 346 675 346 627 q 312 768 346 727 q 228 808 278 808 q 145 767 181 808 q 109 675 109 726 z "},"±":{"ha":555,"x_min":41,"x_max":514,"o":"m 41 41 l 41 139 q 514 153 379 139 l 514 56 q 41 41 372 41 m 41 361 l 41 458 q 225 460 159 458 q 236 653 227 562 l 334 653 q 322 461 324 553 q 514 472 423 463 l 514 375 q 321 364 423 366 q 319 180 319 298 l 222 180 q 224 363 222 296 q 41 361 124 361 z "},"²":{"ha":659,"x_min":69,"x_max":590,"o":"m 69 385 l 69 444 q 252 562 178 508 q 364 662 326 616 q 417 742 402 707 q 432 814 432 777 q 396 908 432 873 q 296 943 361 943 q 192 907 232 943 q 153 823 153 871 q 167 770 153 800 q 157 764 168 769 q 134 753 146 758 l 123 747 q 98 828 98 781 q 167 958 98 906 q 335 1010 235 1010 q 505 953 439 1010 q 571 810 571 896 q 553 723 571 764 q 512 654 534 682 q 440 591 489 626 q 360 538 392 557 q 264 484 329 520 q 259 481 260 482 q 254 479 257 480 q 249 476 252 477 q 244 473 246 475 l 590 473 l 590 385 l 69 385 z "},"³":{"ha":659,"x_min":69,"x_max":590,"o":"m 69 509 q 170 412 106 448 q 328 375 234 375 q 396 380 362 375 q 466 397 429 385 q 529 430 502 410 q 573 483 555 450 q 590 559 590 517 q 542 669 590 629 q 425 714 493 709 q 531 756 490 722 q 571 852 571 791 q 505 966 571 922 q 339 1010 439 1010 q 209 983 268 1010 q 119 911 149 956 l 179 885 q 322 946 227 946 q 404 919 371 946 q 436 838 436 892 q 404 761 436 784 q 322 737 372 737 l 283 737 l 283 677 l 322 677 q 417 644 383 677 q 452 564 452 610 q 411 471 452 504 q 311 439 370 439 q 205 464 250 439 q 139 525 161 490 l 69 509 z "},"´":{"ha":358,"x_min":62,"x_max":302,"o":"m 62 685 q 195 835 115 753 q 249 861 219 861 q 287 845 271 861 q 302 808 302 829 q 262 754 302 772 q 83 667 252 749 l 62 685 z "},"¶":{"ha":805,"x_min":56,"x_max":750,"o":"m 56 647 q 70 726 56 691 q 103 783 83 761 q 158 821 123 805 q 221 844 193 837 q 296 856 249 852 q 369 861 342 860 q 443 861 395 861 l 570 861 l 570 0 l 458 0 l 458 321 q 163 430 271 344 q 56 647 56 515 m 639 0 l 639 861 l 750 861 l 750 0 l 639 0 z "},"·":{"ha":243,"x_min":49,"x_max":195,"o":"m 49 399 q 70 451 49 429 q 122 472 92 472 q 174 451 153 472 q 195 399 195 430 q 174 347 195 368 q 122 326 153 326 q 71 348 92 326 q 49 399 49 369 z "},"¸":{"ha":355,"x_min":56,"x_max":300,"o":"m 56 -243 l 65 -218 q 117 -227 92 -227 q 178 -209 153 -227 q 203 -151 203 -191 q 135 -81 203 -81 l 135 0 l 183 0 l 183 -43 q 212 -47 196 -43 q 250 -62 229 -51 q 286 -98 271 -73 q 300 -158 300 -123 q 257 -241 300 -214 q 153 -268 215 -268 q 56 -243 98 -268 z "},"¹":{"ha":385,"x_min":69,"x_max":273,"o":"m 69 914 l 69 956 q 158 972 133 963 q 227 1006 184 981 l 273 1006 l 273 385 l 144 385 l 144 861 q 130 901 144 887 q 90 914 115 914 l 69 914 z "},"º":{"ha":583,"x_min":56,"x_max":528,"o":"m 56 298 l 56 361 l 528 361 l 528 298 l 56 298 m 64 633 q 90 745 64 692 q 169 835 116 799 q 292 871 222 871 q 414 835 361 871 q 493 745 467 799 q 519 633 519 692 q 505 553 519 588 q 469 496 491 517 q 415 460 446 474 q 354 440 385 446 q 292 435 324 435 q 229 440 259 435 q 168 460 199 446 q 115 496 137 474 q 78 553 92 517 q 64 633 64 588 m 192 694 q 190 677 192 694 q 187 624 187 661 q 215 515 187 551 q 292 479 243 479 q 368 515 340 479 q 396 624 396 551 q 391 694 396 661 q 375 759 386 728 q 342 808 363 789 q 292 827 321 827 q 241 808 262 827 q 209 759 220 789 q 192 694 197 728 z "},"»":{"ha":701,"x_min":41,"x_max":660,"o":"m 41 132 q 227 330 109 226 q 41 529 110 433 l 72 559 q 408 334 220 446 l 410 328 q 72 102 216 212 l 41 132 m 292 132 q 476 330 359 227 q 292 529 361 432 l 322 559 q 659 334 471 446 l 660 328 q 322 102 466 212 l 292 132 z "},"¼":{"ha":1359,"x_min":69,"x_max":1318,"o":"m 69 775 l 69 817 q 158 833 133 824 q 227 867 184 842 l 273 867 l 273 245 l 144 245 l 144 722 q 130 762 144 748 q 90 775 115 775 l 69 775 m 260 0 q 552 431 364 144 q 843 861 739 718 l 954 861 q 663 431 850 718 q 371 0 475 144 l 260 0 m 760 349 q 817 498 760 422 q 950 615 875 574 l 1010 615 q 977 575 1000 607 q 926 487 953 543 q 899 387 899 431 q 916 327 899 352 q 964 287 932 301 q 1030 264 995 272 q 1112 253 1066 256 l 1112 615 l 1242 615 l 1242 253 q 1318 260 1280 255 l 1318 210 q 1282 202 1308 208 q 1242 195 1256 197 l 1242 0 l 1112 0 l 1112 179 q 1003 175 1061 175 q 828 218 897 175 q 760 349 760 262 z "},"½":{"ha":1377,"x_min":69,"x_max":1308,"o":"m 69 775 l 69 817 q 158 833 133 824 q 227 867 184 842 l 273 867 l 273 245 l 144 245 l 144 722 q 130 762 144 748 q 90 775 115 775 l 69 775 m 260 0 q 552 431 364 144 q 843 861 739 718 l 954 861 q 663 431 850 718 q 371 0 475 144 l 260 0 m 787 0 l 787 60 q 970 178 897 123 q 1082 277 1044 232 q 1135 357 1120 322 q 1150 429 1150 393 q 1115 524 1150 489 q 1014 558 1080 558 q 910 523 950 558 q 871 439 871 487 q 885 385 871 414 q 875 378 886 384 q 853 368 864 373 l 842 363 q 817 443 817 395 q 885 573 817 521 q 1053 625 953 625 q 1223 568 1156 625 q 1289 425 1289 511 q 1271 339 1289 380 q 1230 270 1253 298 q 1159 207 1207 241 q 1079 154 1110 172 q 982 100 1047 136 q 962 89 969 92 l 1308 89 l 1308 0 l 787 0 z "},"¾":{"ha":1551,"x_min":69,"x_max":1510,"o":"m 69 370 l 139 386 q 205 325 161 351 q 311 300 250 300 q 411 333 370 300 q 452 425 452 366 q 417 506 452 472 q 322 539 383 539 l 283 539 l 283 599 l 322 599 q 404 622 372 599 q 436 699 436 645 q 404 780 436 753 q 322 807 371 807 q 179 746 227 807 l 119 772 q 209 844 149 818 q 339 871 268 871 q 505 827 439 871 q 571 714 571 784 q 531 618 571 653 q 425 575 490 583 q 542 530 493 570 q 590 421 590 490 q 573 345 590 378 q 529 291 555 311 q 466 258 502 271 q 396 241 429 245 q 328 236 362 236 q 170 273 234 236 q 69 370 106 309 m 452 0 q 744 431 556 144 q 1035 861 931 718 l 1146 861 q 854 431 1042 718 q 562 0 666 144 l 452 0 m 951 349 q 1009 498 951 422 q 1141 615 1066 574 l 1202 615 q 1168 575 1192 607 q 1118 487 1145 543 q 1090 387 1090 431 q 1107 327 1090 352 q 1156 287 1124 301 q 1222 264 1187 272 q 1304 253 1258 256 l 1304 615 l 1434 615 l 1434 253 q 1510 260 1470 255 l 1510 210 q 1474 202 1499 208 q 1434 195 1449 197 l 1434 0 l 1304 0 l 1304 179 q 1194 175 1252 175 q 1020 218 1088 175 q 951 349 951 262 z "},"¿":{"ha":652,"x_min":41,"x_max":653,"o":"m 41 -69 q 60 14 41 -22 q 107 72 78 50 q 173 111 137 94 q 244 140 208 127 q 309 164 279 152 q 357 193 338 176 q 375 232 375 210 q 360 300 375 267 q 313 375 345 332 l 452 375 q 514 297 486 342 q 542 201 542 251 q 524 131 542 162 q 476 80 505 100 q 411 44 446 60 q 339 13 375 27 q 274 -18 304 -2 q 227 -58 245 -35 q 208 -111 208 -81 q 243 -197 208 -164 q 347 -229 278 -229 q 435 -221 391 -229 q 511 -200 479 -212 q 568 -175 543 -187 q 605 -155 593 -163 l 618 -146 l 653 -200 q 639 -210 648 -203 q 598 -232 630 -216 q 532 -260 567 -248 q 443 -282 498 -272 q 332 -292 389 -292 q 115 -230 189 -292 q 41 -69 41 -168 m 310 518 q 333 574 310 550 q 396 597 357 597 q 459 574 435 597 q 484 518 484 550 q 459 461 484 486 q 396 437 435 437 q 333 461 356 437 q 310 518 310 485 z "},"À":{"ha":993,"x_min":28,"x_max":965,"o":"m 28 123 q 66 282 28 188 q 160 467 105 377 q 277 645 214 557 q 385 789 340 733 q 452 868 429 845 l 625 868 q 777 431 677 684 q 965 0 878 177 l 771 0 q 464 768 658 210 q 438 726 454 753 q 380 623 422 699 q 307 483 338 548 q 249 343 275 417 q 222 227 222 270 q 298 155 222 155 q 433 192 355 155 q 567 275 511 229 l 610 193 q 516 129 556 155 q 414 67 476 102 q 291 12 351 31 q 179 -7 231 -7 q 68 25 109 -7 q 28 123 28 57 m 380 1086 q 396 1123 380 1107 q 435 1139 412 1139 q 489 1112 465 1139 q 621 962 565 1034 l 600 945 q 421 1032 431 1027 q 380 1086 380 1050 z "},"Á":{"ha":993,"x_min":28,"x_max":965,"o":"m 28 123 q 66 282 28 188 q 160 467 105 377 q 277 645 214 557 q 385 789 340 733 q 452 868 429 845 l 625 868 q 777 431 677 684 q 965 0 878 177 l 771 0 q 464 768 658 210 q 438 726 454 753 q 380 623 422 699 q 307 483 338 548 q 249 343 275 417 q 222 227 222 270 q 298 155 222 155 q 433 192 355 155 q 567 275 511 229 l 610 193 q 516 129 556 155 q 414 67 476 102 q 291 12 351 31 q 179 -7 231 -7 q 68 25 109 -7 q 28 123 28 57 m 485 962 q 616 1112 541 1034 q 671 1139 641 1139 q 709 1123 693 1139 q 725 1086 725 1107 q 685 1032 725 1050 q 505 945 663 1022 l 485 962 z "},"Â":{"ha":993,"x_min":28,"x_max":965,"o":"m 28 123 q 66 282 28 188 q 160 467 105 377 q 277 645 214 557 q 385 789 340 733 q 452 868 429 845 l 625 868 q 777 431 677 684 q 965 0 878 177 l 771 0 q 464 768 658 210 q 438 726 454 753 q 380 623 422 699 q 307 483 338 548 q 249 343 275 417 q 222 227 222 270 q 298 155 222 155 q 433 192 355 155 q 567 275 511 229 l 610 193 q 516 129 556 155 q 414 67 476 102 q 291 12 351 31 q 179 -7 231 -7 q 68 25 109 -7 q 28 123 28 57 m 375 972 q 421 1030 404 1008 q 474 1085 439 1051 q 549 1147 510 1120 q 623 1085 587 1120 q 676 1030 659 1051 q 722 972 694 1008 l 694 958 q 621 994 666 972 q 549 1029 576 1015 q 476 994 521 1015 q 403 958 431 972 l 375 972 z "},"Ã":{"ha":993,"x_min":28,"x_max":965,"o":"m 28 123 q 66 282 28 188 q 160 467 105 377 q 277 645 214 557 q 385 789 340 733 q 452 868 429 845 l 625 868 q 777 431 677 684 q 965 0 878 177 l 771 0 q 464 768 658 210 q 438 726 454 753 q 380 623 422 699 q 307 483 338 548 q 249 343 275 417 q 222 227 222 270 q 298 155 222 155 q 433 192 355 155 q 567 275 511 229 l 610 193 q 516 129 556 155 q 414 67 476 102 q 291 12 351 31 q 179 -7 231 -7 q 68 25 109 -7 q 28 123 28 57 m 340 991 q 488 1120 357 1120 q 590 1098 514 1120 q 689 1076 666 1076 q 719 1085 701 1076 q 745 1112 736 1094 l 768 1104 q 747 1038 761 1065 q 713 1000 732 1012 q 678 983 694 987 q 640 979 661 979 q 529 1002 614 979 q 427 1025 444 1025 q 392 1016 406 1025 q 359 983 377 1008 l 340 991 z "},"Ä":{"ha":993,"x_min":28,"x_max":965,"o":"m 28 123 q 66 282 28 188 q 160 467 105 377 q 277 645 214 557 q 385 789 340 733 q 452 868 429 845 l 625 868 q 777 431 677 684 q 965 0 878 177 l 771 0 q 464 768 658 210 q 438 726 454 753 q 380 623 422 699 q 307 483 338 548 q 249 343 275 417 q 222 227 222 270 q 298 155 222 155 q 433 192 355 155 q 567 275 511 229 l 610 193 q 516 129 556 155 q 414 67 476 102 q 291 12 351 31 q 179 -7 231 -7 q 68 25 109 -7 q 28 123 28 57 m 350 1031 q 372 1083 350 1061 q 424 1104 393 1104 q 475 1083 455 1104 q 496 1031 496 1062 q 475 979 496 1000 q 424 958 454 958 q 372 980 394 958 q 350 1031 350 1001 m 600 1031 q 622 1083 600 1061 q 673 1104 643 1104 q 725 1083 705 1104 q 746 1031 746 1062 q 725 979 746 1000 q 673 958 704 958 q 622 980 644 958 q 600 1031 600 1001 z "},"Å":{"ha":993,"x_min":28,"x_max":965,"o":"m 28 123 q 66 282 28 188 q 160 467 105 377 q 277 645 214 557 q 385 789 340 733 q 452 868 429 845 l 625 868 q 777 431 677 684 q 965 0 878 177 l 771 0 q 464 768 658 210 q 438 726 454 753 q 380 623 422 699 q 307 483 338 548 q 249 343 275 417 q 222 227 222 270 q 298 155 222 155 q 433 192 355 155 q 567 275 511 229 l 610 193 q 516 129 556 155 q 414 67 476 102 q 291 12 351 31 q 179 -7 231 -7 q 68 25 109 -7 q 28 123 28 57 m 443 1042 q 474 1121 443 1087 q 549 1154 505 1154 q 623 1121 593 1154 q 653 1042 653 1087 q 624 971 653 998 q 549 945 594 945 q 473 972 504 945 q 443 1042 443 999 m 488 1042 q 505 1003 488 1017 q 549 989 523 989 q 592 1003 575 989 q 608 1042 608 1017 q 591 1089 608 1068 q 549 1109 574 1109 q 506 1089 524 1109 q 488 1042 488 1068 z "},"Æ":{"ha":1326,"x_min":28,"x_max":1284,"o":"m 28 123 q 66 282 28 188 q 159 464 104 376 q 275 640 213 553 q 382 783 338 728 q 449 861 427 838 l 1284 861 l 1284 778 l 653 778 q 751 493 683 667 l 1166 493 l 1166 431 l 782 431 q 803 371 791 403 q 824 316 814 340 q 849 256 833 293 q 872 201 865 218 q 899 140 880 183 q 924 83 918 96 l 1284 83 l 1284 0 l 771 0 q 468 778 590 386 q 417 690 448 745 q 337 544 386 636 q 255 364 288 452 q 222 227 222 277 q 298 155 222 155 q 433 192 355 155 q 567 275 511 229 l 610 193 q 516 129 556 155 q 414 67 476 102 q 291 12 351 31 q 179 -7 231 -7 q 68 25 109 -7 q 28 123 28 57 z "},"Ç":{"ha":840,"x_min":56,"x_max":812,"o":"m 56 412 q 86 581 56 498 q 170 729 117 664 q 305 835 224 795 q 479 875 386 875 q 651 838 573 875 q 772 736 730 800 l 703 686 q 621 755 673 726 q 514 785 568 785 q 405 763 452 785 q 329 705 358 741 q 282 619 300 669 q 257 517 264 568 q 250 406 250 465 q 271 256 250 321 q 327 153 291 191 q 407 96 362 115 q 503 77 451 77 q 651 112 589 77 q 743 196 713 147 l 812 146 q 507 -14 722 -7 l 507 -43 q 536 -47 520 -43 q 574 -62 553 -51 q 610 -98 595 -73 q 624 -158 624 -123 q 581 -241 624 -214 q 476 -268 538 -268 q 379 -243 422 -268 l 389 -218 q 440 -227 416 -227 q 501 -209 476 -227 q 526 -151 526 -191 q 458 -81 526 -81 l 458 -12 q 342 5 397 -9 q 234 51 288 19 q 142 129 180 83 q 79 248 103 176 q 56 412 56 321 z "},"È":{"ha":743,"x_min":69,"x_max":701,"o":"m 69 0 l 69 861 l 701 861 l 701 778 l 250 778 l 250 493 l 583 493 l 583 431 l 250 431 l 250 83 l 701 83 l 701 0 l 69 0 m 221 1086 q 237 1123 221 1107 q 275 1139 253 1139 q 329 1112 304 1139 q 461 962 408 1030 l 440 945 q 261 1032 271 1027 q 221 1086 221 1050 z "},"É":{"ha":743,"x_min":69,"x_max":701,"o":"m 69 0 l 69 861 l 701 861 l 701 778 l 250 778 l 250 493 l 583 493 l 583 431 l 250 431 l 250 83 l 701 83 l 701 0 l 69 0 m 325 962 q 457 1112 378 1030 q 511 1139 481 1139 q 550 1123 534 1139 q 566 1086 566 1107 q 525 1032 566 1050 q 346 945 515 1027 l 325 962 z "},"Ê":{"ha":743,"x_min":69,"x_max":701,"o":"m 69 0 l 69 861 l 701 861 l 701 778 l 250 778 l 250 493 l 583 493 l 583 431 l 250 431 l 250 83 l 701 83 l 701 0 l 69 0 m 215 972 q 261 1030 243 1008 q 314 1085 279 1051 q 389 1147 350 1120 q 463 1085 427 1120 q 516 1030 498 1051 q 562 972 534 1008 l 534 958 q 461 994 506 972 q 389 1029 416 1015 q 316 994 361 1015 q 243 958 271 972 l 215 972 z "},"Ë":{"ha":743,"x_min":69,"x_max":701,"o":"m 69 0 l 69 861 l 701 861 l 701 778 l 250 778 l 250 493 l 583 493 l 583 431 l 250 431 l 250 83 l 701 83 l 701 0 l 69 0 m 191 1031 q 212 1083 191 1061 q 264 1104 233 1104 q 316 1083 295 1104 q 336 1031 336 1062 q 315 979 336 1000 q 264 958 294 958 q 212 980 234 958 q 191 1031 191 1001 m 440 1031 q 462 1083 440 1061 q 514 1104 484 1104 q 566 1083 545 1104 q 586 1031 586 1062 q 565 979 586 1000 q 514 958 545 958 q 462 980 484 958 q 440 1031 440 1001 z "},"Ì":{"ha":319,"x_min":-8,"x_max":250,"o":"m -8 1086 q 8 1123 -8 1107 q 46 1139 24 1139 q 100 1112 75 1139 q 232 962 179 1030 l 211 945 q 32 1032 42 1027 q -8 1086 -8 1050 m 69 0 l 69 861 l 250 861 l 250 0 l 69 0 z "},"Í":{"ha":319,"x_min":69,"x_max":336,"o":"m 69 0 l 69 861 l 250 861 l 250 0 l 69 0 m 96 962 q 228 1112 149 1030 q 282 1139 252 1139 q 320 1123 304 1139 q 336 1086 336 1107 q 296 1032 336 1050 q 117 945 286 1027 l 96 962 z "},"Î":{"ha":319,"x_min":-14,"x_max":334,"o":"m -14 972 q 33 1030 15 1008 q 86 1085 50 1051 q 160 1147 121 1120 q 234 1085 199 1120 q 288 1030 270 1051 q 334 972 305 1008 l 306 958 q 233 994 277 972 q 160 1029 188 1015 q 89 995 133 1016 q 14 958 45 974 l -14 972 m 69 0 l 69 861 l 250 861 l 250 0 l 69 0 z "},"Ï":{"ha":319,"x_min":-39,"x_max":357,"o":"m -39 1031 q -17 1083 -39 1061 q 35 1104 4 1104 q 86 1083 66 1104 q 107 1031 107 1062 q 86 979 107 1000 q 35 958 65 958 q -17 980 5 958 q -39 1031 -39 1001 m 69 0 l 69 861 l 250 861 l 250 0 l 69 0 m 211 1031 q 233 1083 211 1061 q 285 1104 254 1104 q 336 1083 316 1104 q 357 1031 357 1062 q 336 979 357 1000 q 285 958 315 958 q 233 980 255 958 q 211 1031 211 1001 z "},"Ð":{"ha":958,"x_min":28,"x_max":903,"o":"m 28 403 l 28 465 l 97 465 l 97 861 l 433 861 q 614 838 534 861 q 748 774 694 814 q 837 679 801 734 q 887 564 872 624 q 903 437 903 504 q 875 267 903 342 q 802 142 848 191 q 694 60 757 93 q 566 14 632 27 q 427 0 500 0 l 347 0 l 347 83 l 427 83 q 542 101 492 83 q 630 159 591 119 q 688 272 669 200 q 708 446 708 343 q 701 544 708 498 q 673 634 693 589 q 622 709 653 678 q 538 759 590 740 q 418 778 486 778 l 278 778 l 278 465 l 458 465 l 458 403 l 278 403 l 278 0 l 97 0 l 97 403 l 28 403 z "},"Ñ":{"ha":958,"x_min":69,"x_max":903,"o":"m 69 0 l 69 861 l 278 861 l 688 90 q 729 386 729 209 q 694 645 729 521 q 604 861 659 769 l 799 861 q 903 518 903 665 q 886 361 903 439 q 847 226 870 283 q 800 121 823 168 q 760 43 776 75 q 743 0 743 11 l 625 0 l 250 701 l 250 0 l 69 0 m 264 991 q 411 1120 280 1120 q 513 1098 437 1120 q 612 1076 589 1076 q 642 1085 625 1076 q 668 1112 659 1094 l 692 1104 q 670 1038 684 1065 q 637 1000 656 1012 q 601 983 618 987 q 564 979 585 979 q 452 1002 537 979 q 350 1025 367 1025 q 316 1017 330 1025 q 283 983 302 1008 l 264 991 z "},"Ò":{"ha":958,"x_min":56,"x_max":903,"o":"m 56 386 q 71 525 56 456 q 121 657 87 594 q 204 769 155 721 q 323 846 252 817 q 479 875 395 875 q 635 846 564 875 q 755 769 706 817 q 838 657 804 721 q 887 525 871 594 q 903 386 903 456 q 878 223 903 294 q 813 108 853 152 q 716 36 772 64 q 602 -3 660 8 q 479 -14 545 -14 q 357 -3 414 -14 q 242 36 299 8 q 145 108 186 64 q 80 223 105 152 q 56 386 56 294 m 250 367 q 312 140 250 218 q 479 62 374 62 q 646 140 585 62 q 708 367 708 218 q 695 524 708 450 q 656 661 682 598 q 585 762 630 724 q 479 799 539 799 q 374 762 420 799 q 302 661 329 724 q 263 524 276 598 q 250 367 250 450 m 304 1086 q 320 1123 304 1107 q 358 1139 336 1139 q 412 1112 388 1139 q 545 962 492 1030 l 524 945 q 345 1032 355 1027 q 304 1086 304 1050 z "},"Ó":{"ha":958,"x_min":56,"x_max":903,"o":"m 56 386 q 71 525 56 456 q 121 657 87 594 q 204 769 155 721 q 323 846 252 817 q 479 875 395 875 q 635 846 564 875 q 755 769 706 817 q 838 657 804 721 q 887 525 871 594 q 903 386 903 456 q 878 223 903 294 q 813 108 853 152 q 716 36 772 64 q 602 -3 660 8 q 479 -14 545 -14 q 357 -3 414 -14 q 242 36 299 8 q 145 108 186 64 q 80 223 105 152 q 56 386 56 294 m 250 367 q 312 140 250 218 q 479 62 374 62 q 646 140 585 62 q 708 367 708 218 q 695 524 708 450 q 656 661 682 598 q 585 762 630 724 q 479 799 539 799 q 374 762 420 799 q 302 661 329 724 q 263 524 276 598 q 250 367 250 450 m 408 962 q 541 1112 461 1030 q 595 1139 565 1139 q 633 1123 617 1139 q 648 1086 648 1107 q 608 1032 648 1050 q 429 945 598 1027 l 408 962 z "},"Ô":{"ha":958,"x_min":56,"x_max":903,"o":"m 56 386 q 71 525 56 456 q 121 657 87 594 q 204 769 155 721 q 323 846 252 817 q 479 875 395 875 q 635 846 564 875 q 755 769 706 817 q 838 657 804 721 q 887 525 871 594 q 903 386 903 456 q 878 223 903 294 q 813 108 853 152 q 716 36 772 64 q 602 -3 660 8 q 479 -14 545 -14 q 357 -3 414 -14 q 242 36 299 8 q 145 108 186 64 q 80 223 105 152 q 56 386 56 294 m 250 367 q 312 140 250 218 q 479 62 374 62 q 646 140 585 62 q 708 367 708 218 q 695 524 708 450 q 656 661 682 598 q 585 762 630 724 q 479 799 539 799 q 374 762 420 799 q 302 661 329 724 q 263 524 276 598 q 250 367 250 450 m 298 972 q 345 1030 327 1008 q 398 1085 362 1051 q 472 1147 433 1120 q 546 1085 511 1120 q 600 1030 582 1051 q 646 972 617 1008 l 618 958 q 545 994 589 972 q 472 1029 500 1015 q 399 994 444 1015 q 326 958 355 972 l 298 972 z "},"Õ":{"ha":958,"x_min":56,"x_max":903,"o":"m 56 386 q 71 525 56 456 q 121 657 87 594 q 204 769 155 721 q 323 846 252 817 q 479 875 395 875 q 635 846 564 875 q 755 769 706 817 q 838 657 804 721 q 887 525 871 594 q 903 386 903 456 q 878 223 903 294 q 813 108 853 152 q 716 36 772 64 q 602 -3 660 8 q 479 -14 545 -14 q 357 -3 414 -14 q 242 36 299 8 q 145 108 186 64 q 80 223 105 152 q 56 386 56 294 m 250 367 q 312 140 250 218 q 479 62 374 62 q 646 140 585 62 q 708 367 708 218 q 695 524 708 450 q 656 661 682 598 q 585 762 630 724 q 479 799 539 799 q 374 762 420 799 q 302 661 329 724 q 263 524 276 598 q 250 367 250 450 m 264 991 q 411 1120 280 1120 q 513 1098 437 1120 q 612 1076 589 1076 q 642 1085 625 1076 q 668 1112 659 1094 l 692 1104 q 670 1038 684 1065 q 637 1000 656 1012 q 601 983 618 987 q 564 979 585 979 q 452 1002 537 979 q 350 1025 367 1025 q 316 1017 330 1025 q 283 983 302 1008 l 264 991 z "},"Ö":{"ha":958,"x_min":56,"x_max":903,"o":"m 56 386 q 71 525 56 456 q 121 657 87 594 q 204 769 155 721 q 323 846 252 817 q 479 875 395 875 q 635 846 564 875 q 755 769 706 817 q 838 657 804 721 q 887 525 871 594 q 903 386 903 456 q 878 223 903 294 q 813 108 853 152 q 716 36 772 64 q 602 -3 660 8 q 479 -14 545 -14 q 357 -3 414 -14 q 242 36 299 8 q 145 108 186 64 q 80 223 105 152 q 56 386 56 294 m 250 367 q 312 140 250 218 q 479 62 374 62 q 646 140 585 62 q 708 367 708 218 q 695 524 708 450 q 656 661 682 598 q 585 762 630 724 q 479 799 539 799 q 374 762 420 799 q 302 661 329 724 q 263 524 276 598 q 250 367 250 450 m 273 1031 q 295 1083 273 1061 q 347 1104 317 1104 q 399 1083 378 1104 q 419 1031 419 1062 q 398 979 419 1000 q 347 958 378 958 q 295 980 317 958 q 273 1031 273 1001 m 524 1031 q 545 1083 524 1061 q 597 1104 567 1104 q 649 1083 629 1104 q 669 1031 669 1062 q 649 979 669 1000 q 597 958 628 958 q 546 980 568 958 q 524 1031 524 1001 z "},"×":{"ha":536,"x_min":41,"x_max":494,"o":"m 41 167 q 200 326 177 302 q 41 500 86 447 l 111 570 q 268 396 156 514 q 425 570 385 519 l 494 500 q 336 326 444 440 q 494 167 382 279 l 425 97 l 268 256 q 186 173 243 231 q 111 97 129 115 l 41 167 z "},"Ø":{"ha":958,"x_min":56,"x_max":903,"o":"m 56 386 q 71 525 56 456 q 121 657 87 594 q 204 769 155 721 q 323 846 252 817 q 479 875 395 875 q 619 851 556 875 l 625 861 l 722 861 l 697 815 q 850 633 798 751 q 903 386 903 515 q 878 223 903 294 q 813 108 853 152 q 716 36 772 64 q 602 -3 660 8 q 479 -14 545 -14 q 322 5 394 -14 l 319 0 l 222 0 l 241 36 q 56 386 56 130 m 250 367 q 302 154 250 233 q 430 448 343 239 q 575 768 517 656 q 479 799 534 799 q 374 762 420 799 q 302 661 329 724 q 263 524 276 598 q 250 367 250 450 m 368 90 q 479 62 416 62 q 646 140 585 62 q 708 367 708 218 q 637 697 708 578 q 512 408 598 614 q 368 90 425 202 z "},"Ù":{"ha":944,"x_min":62,"x_max":882,"o":"m 62 322 q 85 514 62 379 q 130 755 107 648 l 153 861 l 292 861 q 257 300 257 452 q 268 209 257 250 q 303 134 279 168 q 370 81 327 100 q 472 62 413 62 q 574 81 531 62 q 641 134 617 100 q 676 209 665 168 q 688 300 688 250 q 679 508 688 368 q 662 755 670 648 l 653 861 l 791 861 q 817 743 802 815 q 857 525 831 671 q 882 322 882 379 q 854 163 882 229 q 771 59 826 98 q 643 4 716 21 q 472 -14 570 -14 q 301 4 374 -14 q 173 59 228 21 q 90 163 118 98 q 62 322 62 229 m 304 1086 q 320 1123 304 1107 q 358 1139 336 1139 q 412 1112 388 1139 q 545 962 492 1030 l 524 945 q 345 1032 355 1027 q 304 1086 304 1050 z "},"Ú":{"ha":944,"x_min":62,"x_max":882,"o":"m 62 322 q 85 514 62 379 q 130 755 107 648 l 153 861 l 292 861 q 257 300 257 452 q 268 209 257 250 q 303 134 279 168 q 370 81 327 100 q 472 62 413 62 q 574 81 531 62 q 641 134 617 100 q 676 209 665 168 q 688 300 688 250 q 679 508 688 368 q 662 755 670 648 l 653 861 l 791 861 q 817 743 802 815 q 857 525 831 671 q 882 322 882 379 q 854 163 882 229 q 771 59 826 98 q 643 4 716 21 q 472 -14 570 -14 q 301 4 374 -14 q 173 59 228 21 q 90 163 118 98 q 62 322 62 229 m 408 962 q 541 1112 461 1030 q 595 1139 565 1139 q 633 1123 617 1139 q 648 1086 648 1107 q 608 1032 648 1050 q 429 945 598 1027 l 408 962 z "},"Û":{"ha":944,"x_min":62,"x_max":882,"o":"m 62 322 q 85 514 62 379 q 130 755 107 648 l 153 861 l 292 861 q 257 300 257 452 q 268 209 257 250 q 303 134 279 168 q 370 81 327 100 q 472 62 413 62 q 574 81 531 62 q 641 134 617 100 q 676 209 665 168 q 688 300 688 250 q 679 508 688 368 q 662 755 670 648 l 653 861 l 791 861 q 817 743 802 815 q 857 525 831 671 q 882 322 882 379 q 854 163 882 229 q 771 59 826 98 q 643 4 716 21 q 472 -14 570 -14 q 301 4 374 -14 q 173 59 228 21 q 90 163 118 98 q 62 322 62 229 m 298 972 q 345 1030 327 1008 q 398 1085 362 1051 q 472 1147 433 1120 q 546 1085 511 1120 q 600 1030 582 1051 q 646 972 617 1008 l 618 958 q 545 994 589 972 q 472 1029 500 1015 q 399 994 444 1015 q 326 958 355 972 l 298 972 z "},"Ü":{"ha":944,"x_min":62,"x_max":882,"o":"m 62 322 q 85 514 62 379 q 130 755 107 648 l 153 861 l 292 861 q 257 300 257 452 q 268 209 257 250 q 303 134 279 168 q 370 81 327 100 q 472 62 413 62 q 574 81 531 62 q 641 134 617 100 q 676 209 665 168 q 688 300 688 250 q 679 508 688 368 q 662 755 670 648 l 653 861 l 791 861 q 817 743 802 815 q 857 525 831 671 q 882 322 882 379 q 854 163 882 229 q 771 59 826 98 q 643 4 716 21 q 472 -14 570 -14 q 301 4 374 -14 q 173 59 228 21 q 90 163 118 98 q 62 322 62 229 m 273 1031 q 295 1083 273 1061 q 347 1104 317 1104 q 399 1083 378 1104 q 419 1031 419 1062 q 398 979 419 1000 q 347 958 378 958 q 295 980 317 958 q 273 1031 273 1001 m 524 1031 q 545 1083 524 1061 q 597 1104 567 1104 q 649 1083 629 1104 q 669 1031 669 1062 q 649 979 669 1000 q 597 958 628 958 q 546 980 568 958 q 524 1031 524 1001 z "},"Ý":{"ha":903,"x_min":41,"x_max":875,"o":"m 41 663 q 65 755 41 714 q 126 820 88 796 q 208 856 164 844 q 298 868 252 868 l 298 796 q 250 745 270 781 q 229 660 229 708 q 514 322 229 486 l 694 861 l 875 861 l 583 0 l 410 0 l 486 215 q 155 425 269 315 q 41 663 41 534 m 433 962 q 566 1112 486 1030 q 619 1139 590 1139 q 657 1123 642 1139 q 673 1086 673 1107 q 633 1032 673 1050 q 454 945 623 1027 l 433 962 z "},"Þ":{"ha":888,"x_min":69,"x_max":847,"o":"m 69 0 l 69 861 l 250 861 l 250 722 l 460 722 q 533 722 507 722 q 607 717 559 721 q 682 706 654 713 q 745 682 709 698 q 800 645 781 667 q 833 588 819 623 q 847 509 847 553 q 809 393 847 449 q 715 296 772 337 q 585 220 659 256 q 446 163 511 184 q 319 126 382 141 l 319 224 q 523 309 451 269 q 624 392 595 349 q 653 494 653 435 q 645 548 653 524 q 624 586 636 572 q 592 612 612 601 q 557 628 572 623 q 519 635 541 633 q 486 638 497 638 q 460 639 475 639 l 250 639 l 250 0 l 69 0 z "},"ß":{"ha":805,"x_min":14,"x_max":764,"o":"m 14 521 l 14 583 l 125 583 l 125 615 q 194 805 125 736 q 404 875 262 875 q 487 868 448 875 q 561 847 526 862 q 622 808 596 831 q 662 749 647 785 q 677 668 677 713 q 653 534 677 603 l 614 534 q 533 516 566 534 q 500 468 500 498 q 519 424 500 445 q 568 388 539 404 q 632 352 597 373 q 695 310 666 332 q 744 253 724 288 q 764 174 764 217 q 432 -14 764 -14 l 416 49 q 509 56 471 49 q 565 77 546 64 q 590 105 583 90 q 597 139 597 120 q 579 177 597 159 q 532 209 560 195 q 472 243 505 223 q 412 286 440 264 q 366 345 385 309 q 347 424 347 380 q 397 531 347 485 q 529 590 447 576 q 539 672 539 635 q 506 774 539 739 q 406 810 472 810 q 365 805 382 810 q 335 793 347 800 q 315 771 323 786 q 302 743 307 757 q 295 706 297 730 q 292 663 293 682 q 292 611 292 644 l 292 0 l 125 0 l 125 521 l 14 521 z "},"à":{"ha":798,"x_min":41,"x_max":771,"o":"m 41 139 q 66 255 41 195 q 139 372 91 315 q 250 477 186 429 q 398 557 313 525 q 575 597 484 589 q 657 286 605 448 q 771 0 709 123 l 590 0 q 494 236 543 90 q 422 500 446 382 q 274 368 333 460 q 215 187 215 275 q 243 111 215 138 q 326 83 271 83 q 479 132 402 83 l 500 77 q 370 9 445 32 q 218 -14 296 -14 q 92 26 142 -14 q 41 139 41 66 m 288 808 q 303 845 288 829 q 342 861 319 861 q 396 835 372 861 q 528 685 472 756 l 507 667 q 328 754 349 744 q 288 808 288 772 z "},"á":{"ha":798,"x_min":41,"x_max":771,"o":"m 41 139 q 66 255 41 195 q 139 372 91 315 q 250 477 186 429 q 398 557 313 525 q 575 597 484 589 q 657 286 605 448 q 771 0 709 123 l 590 0 q 494 236 543 90 q 422 500 446 382 q 274 368 333 460 q 215 187 215 275 q 243 111 215 138 q 326 83 271 83 q 479 132 402 83 l 500 77 q 370 9 445 32 q 218 -14 296 -14 q 92 26 142 -14 q 41 139 41 66 m 392 685 q 524 835 448 756 q 578 861 548 861 q 616 845 600 861 q 632 808 632 829 q 591 754 632 772 q 412 667 581 749 l 392 685 z "},"â":{"ha":798,"x_min":41,"x_max":771,"o":"m 41 139 q 66 255 41 195 q 139 372 91 315 q 250 477 186 429 q 398 557 313 525 q 575 597 484 589 q 657 286 605 448 q 771 0 709 123 l 590 0 q 494 236 543 90 q 422 500 446 382 q 274 368 333 460 q 215 187 215 275 q 243 111 215 138 q 326 83 271 83 q 479 132 402 83 l 500 77 q 370 9 445 32 q 218 -14 296 -14 q 92 26 142 -14 q 41 139 41 66 m 282 694 q 328 752 311 730 q 381 807 346 773 q 456 869 417 842 q 530 807 494 842 q 583 752 566 773 q 629 694 601 730 l 602 681 q 525 718 568 697 q 456 751 481 739 q 387 718 430 739 q 310 681 343 697 l 282 694 z "},"ã":{"ha":798,"x_min":41,"x_max":771,"o":"m 41 139 q 66 255 41 195 q 139 372 91 315 q 250 477 186 429 q 398 557 313 525 q 575 597 484 589 q 657 286 605 448 q 771 0 709 123 l 590 0 q 494 236 543 90 q 422 500 446 382 q 274 368 333 460 q 215 187 215 275 q 243 111 215 138 q 326 83 271 83 q 479 132 402 83 l 500 77 q 370 9 445 32 q 218 -14 296 -14 q 92 26 142 -14 q 41 139 41 66 m 248 714 q 395 842 264 842 q 497 820 421 842 q 596 799 573 799 q 626 808 608 799 q 652 835 643 817 l 675 827 q 658 771 669 795 q 635 734 647 747 q 606 714 623 722 q 577 704 590 706 q 547 701 564 701 q 436 724 521 701 q 334 747 351 747 q 299 739 314 747 q 267 705 285 730 l 248 714 z "},"ä":{"ha":798,"x_min":41,"x_max":771,"o":"m 41 139 q 66 255 41 195 q 139 372 91 315 q 250 477 186 429 q 398 557 313 525 q 575 597 484 589 q 657 286 605 448 q 771 0 709 123 l 590 0 q 494 236 543 90 q 422 500 446 382 q 274 368 333 460 q 215 187 215 275 q 243 111 215 138 q 326 83 271 83 q 479 132 402 83 l 500 77 q 370 9 445 32 q 218 -14 296 -14 q 92 26 142 -14 q 41 139 41 66 m 257 753 q 278 805 257 784 q 330 827 300 827 q 382 805 361 827 q 403 753 403 784 q 382 702 403 723 q 330 681 361 681 q 279 702 300 681 q 257 753 257 723 m 507 753 q 529 805 507 784 q 581 827 551 827 q 632 805 612 827 q 653 753 653 784 q 632 702 653 723 q 581 681 612 681 q 529 702 551 681 q 507 753 507 723 z "},"å":{"ha":798,"x_min":41,"x_max":771,"o":"m 41 139 q 66 255 41 195 q 139 372 91 315 q 250 477 186 429 q 398 557 313 525 q 575 597 484 589 q 657 286 605 448 q 771 0 709 123 l 590 0 q 494 236 543 90 q 422 500 446 382 q 274 368 333 460 q 215 187 215 275 q 243 111 215 138 q 326 83 271 83 q 479 132 402 83 l 500 77 q 370 9 445 32 q 218 -14 296 -14 q 92 26 142 -14 q 41 139 41 66 m 350 764 q 381 843 350 809 q 456 876 412 876 q 530 843 500 876 q 559 764 559 809 q 530 693 559 720 q 456 667 501 667 q 380 694 411 667 q 350 764 350 721 m 395 764 q 412 725 395 739 q 456 711 430 711 q 499 725 482 711 q 515 764 515 739 q 498 811 515 791 q 456 832 481 832 q 413 811 431 832 q 395 764 395 790 z "},"æ":{"ha":1183,"x_min":41,"x_max":1141,"o":"m 41 139 q 66 255 41 195 q 139 372 91 315 q 250 477 186 429 q 398 557 313 525 q 575 597 484 589 q 596 507 581 568 q 829 597 686 597 q 871 596 850 597 q 925 587 892 594 q 985 566 958 579 q 1043 529 1013 553 q 1094 472 1073 505 q 1128 389 1114 439 q 1141 277 1141 338 l 729 277 l 729 339 l 961 339 q 822 534 958 534 q 676 277 676 534 q 724 105 676 161 q 850 49 772 49 q 963 74 911 49 q 1038 139 1015 100 l 1086 104 q 989 19 1055 51 q 836 -14 923 -14 q 637 30 720 -14 q 521 164 554 73 q 422 500 454 343 q 274 368 333 460 q 215 187 215 275 q 243 111 215 138 q 326 83 271 83 q 479 132 402 83 l 500 77 q 370 9 445 32 q 218 -14 296 -14 q 92 26 142 -14 q 41 139 41 66 z "},"ç":{"ha":639,"x_min":41,"x_max":604,"o":"m 41 282 q 78 435 41 363 q 189 552 115 506 q 358 597 262 597 q 487 574 426 597 q 576 507 548 550 l 528 472 q 474 516 508 498 q 403 534 439 534 q 215 278 215 534 q 264 106 215 163 q 389 49 313 49 q 492 74 449 49 q 555 132 534 98 l 604 97 q 517 18 574 47 q 386 -14 459 -10 l 386 -43 q 415 -47 399 -43 q 453 -62 431 -51 q 488 -98 474 -73 q 503 -158 503 -123 q 460 -241 503 -214 q 355 -268 418 -268 q 258 -243 301 -268 l 268 -218 q 319 -227 295 -227 q 380 -209 355 -227 q 406 -151 406 -191 q 338 -81 406 -81 l 338 -12 q 255 1 295 -9 q 175 33 215 11 q 106 88 136 56 q 59 170 77 120 q 41 282 41 220 z "},"è":{"ha":722,"x_min":41,"x_max":681,"o":"m 41 281 q 80 436 41 365 q 194 553 119 508 q 368 597 270 597 q 410 596 389 597 q 464 587 431 594 q 524 566 496 579 q 582 529 552 553 q 633 472 612 505 q 667 389 654 439 q 681 277 681 338 l 268 277 l 268 339 l 500 339 q 361 534 496 534 q 215 277 215 534 q 263 105 215 161 q 389 49 311 49 q 502 74 450 49 q 576 139 553 100 l 625 104 q 528 19 593 51 q 375 -14 462 -14 q 244 3 303 -14 q 139 54 185 20 q 67 146 93 88 q 41 281 41 204 m 193 808 q 209 845 193 829 q 248 861 225 861 q 301 835 277 861 q 433 685 380 753 l 412 667 q 233 754 243 749 q 193 808 193 772 z "},"é":{"ha":722,"x_min":41,"x_max":681,"o":"m 41 281 q 80 436 41 365 q 194 553 119 508 q 368 597 270 597 q 410 596 389 597 q 464 587 431 594 q 524 566 496 579 q 582 529 552 553 q 633 472 612 505 q 667 389 654 439 q 681 277 681 338 l 268 277 l 268 339 l 500 339 q 361 534 496 534 q 215 277 215 534 q 263 105 215 161 q 389 49 311 49 q 502 74 450 49 q 576 139 553 100 l 625 104 q 528 19 593 51 q 375 -14 462 -14 q 244 3 303 -14 q 139 54 185 20 q 67 146 93 88 q 41 281 41 204 m 297 685 q 429 835 350 753 q 484 861 454 861 q 522 845 506 861 q 538 808 538 829 q 497 754 538 772 q 318 667 487 749 l 297 685 z "},"ê":{"ha":722,"x_min":41,"x_max":681,"o":"m 41 281 q 80 436 41 365 q 194 553 119 508 q 368 597 270 597 q 410 596 389 597 q 464 587 431 594 q 524 566 496 579 q 582 529 552 553 q 633 472 612 505 q 667 389 654 439 q 681 277 681 338 l 268 277 l 268 339 l 500 339 q 361 534 496 534 q 215 277 215 534 q 263 105 215 161 q 389 49 311 49 q 502 74 450 49 q 576 139 553 100 l 625 104 q 528 19 593 51 q 375 -14 462 -14 q 244 3 303 -14 q 139 54 185 20 q 67 146 93 88 q 41 281 41 204 m 187 694 q 233 752 216 730 q 287 807 251 773 q 361 869 322 842 q 435 807 399 842 q 488 752 471 773 q 534 694 506 730 l 507 681 q 430 718 473 698 q 361 751 387 739 q 291 718 334 739 q 215 681 248 697 l 187 694 z "},"ë":{"ha":722,"x_min":41,"x_max":681,"o":"m 41 281 q 80 436 41 365 q 194 553 119 508 q 368 597 270 597 q 410 596 389 597 q 464 587 431 594 q 524 566 496 579 q 582 529 552 553 q 633 472 612 505 q 667 389 654 439 q 681 277 681 338 l 268 277 l 268 339 l 500 339 q 361 534 496 534 q 215 277 215 534 q 263 105 215 161 q 389 49 311 49 q 502 74 450 49 q 576 139 553 100 l 625 104 q 528 19 593 51 q 375 -14 462 -14 q 244 3 303 -14 q 139 54 185 20 q 67 146 93 88 q 41 281 41 204 m 163 753 q 184 805 163 784 q 236 827 206 827 q 288 805 267 827 q 309 753 309 784 q 288 702 309 723 q 236 681 267 681 q 184 702 206 681 q 163 753 163 723 m 412 753 q 434 805 412 783 q 486 827 456 827 q 537 805 517 827 q 558 753 558 784 q 537 702 558 722 q 486 681 517 681 q 434 702 456 681 q 412 753 412 723 z "},"ì":{"ha":277,"x_min":-29,"x_max":222,"o":"m -29 808 q -13 845 -29 829 q 25 861 3 861 q 79 835 55 861 q 211 685 155 756 l 191 667 q 11 754 33 744 q -29 808 -29 772 m 56 0 l 56 583 l 222 583 l 222 0 l 56 0 z "},"í":{"ha":277,"x_min":56,"x_max":315,"o":"m 56 0 l 56 583 l 222 583 l 222 0 l 56 0 m 75 685 q 207 835 131 756 q 261 861 231 861 q 299 845 283 861 q 315 808 315 829 q 275 754 315 772 q 96 667 254 744 l 75 685 z "},"î":{"ha":277,"x_min":-35,"x_max":313,"o":"m -35 694 q 12 752 -6 730 q 65 807 29 773 q 139 869 100 842 q 213 807 178 842 q 267 752 249 773 q 313 694 284 730 l 285 681 q 209 718 252 697 q 139 751 165 739 q 70 718 113 739 q -7 681 26 697 l -35 694 m 56 0 l 56 583 l 222 583 l 222 0 l 56 0 z "},"ï":{"ha":277,"x_min":-60,"x_max":336,"o":"m -60 753 q -38 805 -60 784 q 14 827 -16 827 q 65 805 45 827 q 86 753 86 784 q 65 702 86 723 q 14 681 45 681 q -38 702 -16 681 q -60 753 -60 723 m 56 0 l 56 583 l 222 583 l 222 0 l 56 0 m 191 753 q 212 805 191 784 q 264 827 233 827 q 316 805 295 827 q 336 753 336 784 q 315 702 336 723 q 264 681 294 681 q 212 702 234 681 q 191 753 191 723 z "},"ð":{"ha":764,"x_min":41,"x_max":708,"o":"m 41 257 q 142 461 41 383 q 410 555 243 539 l 437 493 q 273 416 331 483 q 215 245 215 349 q 255 104 215 160 q 375 49 295 49 q 495 105 456 49 q 534 278 534 161 q 330 699 534 544 l 180 625 l 180 708 l 257 746 q 134 806 214 770 l 161 861 q 354 793 264 838 l 521 875 l 521 791 l 433 749 q 634 554 560 668 q 708 306 708 439 q 694 199 708 248 q 657 119 680 151 q 603 62 634 87 q 540 23 571 37 q 474 1 509 9 q 415 -11 440 -8 q 367 -14 390 -14 q 201 16 274 -14 q 85 109 129 46 q 41 257 41 171 z "},"ñ":{"ha":729,"x_min":56,"x_max":681,"o":"m 56 0 l 56 583 l 222 583 l 222 542 q 424 597 316 597 q 526 583 480 597 q 607 538 572 568 q 662 459 642 509 q 681 343 681 409 q 611 0 681 233 l 493 0 q 507 235 507 172 q 491 395 507 337 q 443 476 475 453 q 355 500 410 500 q 222 472 296 500 l 222 0 l 56 0 m 170 714 q 317 842 186 842 q 419 820 343 842 q 518 799 495 799 q 548 808 530 799 q 574 835 565 817 l 597 827 q 576 761 590 787 q 543 722 562 734 q 507 706 524 710 q 469 701 490 701 q 358 724 443 701 q 256 747 273 747 q 222 739 236 747 q 189 705 208 730 l 170 714 z "},"ò":{"ha":722,"x_min":41,"x_max":681,"o":"m 41 264 q 63 384 41 325 q 124 491 85 443 q 226 568 164 538 q 361 597 288 597 q 496 568 434 597 q 597 491 557 538 q 659 384 637 443 q 681 264 681 325 q 661 151 681 201 q 609 71 641 101 q 534 21 578 41 q 449 -6 491 1 q 361 -14 406 -14 q 273 -6 315 -14 q 188 21 231 1 q 113 71 144 41 q 61 151 81 101 q 41 264 41 201 m 193 808 q 209 845 193 829 q 248 861 225 861 q 301 835 277 861 q 433 685 380 753 l 412 667 q 233 754 243 749 q 193 808 193 772 m 215 250 q 254 99 215 149 q 361 49 294 49 q 468 99 428 49 q 507 250 507 149 q 500 349 507 302 q 477 439 493 396 q 432 509 462 483 q 361 534 402 534 q 290 509 319 534 q 244 439 260 483 q 222 349 229 396 q 215 250 215 302 z "},"ó":{"ha":722,"x_min":41,"x_max":681,"o":"m 41 264 q 63 384 41 325 q 124 491 85 443 q 226 568 164 538 q 361 597 288 597 q 496 568 434 597 q 597 491 557 538 q 659 384 637 443 q 681 264 681 325 q 661 151 681 201 q 609 71 641 101 q 534 21 578 41 q 449 -6 491 1 q 361 -14 406 -14 q 273 -6 315 -14 q 188 21 231 1 q 113 71 144 41 q 61 151 81 101 q 41 264 41 201 m 215 250 q 254 99 215 149 q 361 49 294 49 q 468 99 428 49 q 507 250 507 149 q 500 349 507 302 q 477 439 493 396 q 432 509 462 483 q 361 534 402 534 q 290 509 319 534 q 244 439 260 483 q 222 349 229 396 q 215 250 215 302 m 297 685 q 429 835 350 753 q 484 861 454 861 q 522 845 506 861 q 538 808 538 829 q 497 754 538 772 q 318 667 487 749 l 297 685 z "},"ô":{"ha":722,"x_min":41,"x_max":681,"o":"m 41 264 q 63 384 41 325 q 124 491 85 443 q 226 568 164 538 q 361 597 288 597 q 496 568 434 597 q 597 491 557 538 q 659 384 637 443 q 681 264 681 325 q 661 151 681 201 q 609 71 641 101 q 534 21 578 41 q 449 -6 491 1 q 361 -14 406 -14 q 273 -6 315 -14 q 188 21 231 1 q 113 71 144 41 q 61 151 81 101 q 41 264 41 201 m 187 694 q 233 752 216 730 q 287 807 251 773 q 361 869 322 842 q 435 807 399 842 q 488 752 471 773 q 534 694 506 730 l 507 681 q 430 718 473 698 q 361 751 387 739 q 291 718 334 739 q 215 681 248 697 l 187 694 m 215 250 q 254 99 215 149 q 361 49 294 49 q 468 99 428 49 q 507 250 507 149 q 500 349 507 302 q 477 439 493 396 q 432 509 462 483 q 361 534 402 534 q 290 509 319 534 q 244 439 260 483 q 222 349 229 396 q 215 250 215 302 z "},"õ":{"ha":722,"x_min":41,"x_max":681,"o":"m 41 264 q 63 384 41 325 q 124 491 85 443 q 226 568 164 538 q 361 597 288 597 q 496 568 434 597 q 597 491 557 538 q 659 384 637 443 q 681 264 681 325 q 661 151 681 201 q 609 71 641 101 q 534 21 578 41 q 449 -6 491 1 q 361 -14 406 -14 q 273 -6 315 -14 q 188 21 231 1 q 113 71 144 41 q 61 151 81 101 q 41 264 41 201 m 153 714 q 300 842 169 842 q 402 820 326 842 q 501 799 478 799 q 531 808 513 799 q 557 835 548 817 l 581 827 q 564 771 574 795 q 541 734 553 747 q 512 714 528 722 q 483 704 496 706 q 453 701 469 701 q 341 724 427 701 q 239 747 256 747 q 205 739 219 747 q 172 705 191 730 l 153 714 m 215 250 q 254 99 215 149 q 361 49 294 49 q 468 99 428 49 q 507 250 507 149 q 500 349 507 302 q 477 439 493 396 q 432 509 462 483 q 361 534 402 534 q 290 509 319 534 q 244 439 260 483 q 222 349 229 396 q 215 250 215 302 z "},"ö":{"ha":722,"x_min":41,"x_max":681,"o":"m 41 264 q 63 384 41 325 q 124 491 85 443 q 226 568 164 538 q 361 597 288 597 q 496 568 434 597 q 597 491 557 538 q 659 384 637 443 q 681 264 681 325 q 661 151 681 201 q 609 71 641 101 q 534 21 578 41 q 449 -6 491 1 q 361 -14 406 -14 q 273 -6 315 -14 q 188 21 231 1 q 113 71 144 41 q 61 151 81 101 q 41 264 41 201 m 163 753 q 184 805 163 784 q 236 827 206 827 q 288 805 267 827 q 309 753 309 784 q 288 702 309 723 q 236 681 267 681 q 184 702 206 681 q 163 753 163 723 m 215 250 q 254 99 215 149 q 361 49 294 49 q 468 99 428 49 q 507 250 507 149 q 500 349 507 302 q 477 439 493 396 q 432 509 462 483 q 361 534 402 534 q 290 509 319 534 q 244 439 260 483 q 222 349 229 396 q 215 250 215 302 m 412 753 q 434 805 412 783 q 486 827 456 827 q 537 805 517 827 q 558 753 558 784 q 537 702 558 722 q 486 681 517 681 q 434 702 456 681 q 412 753 412 723 z "},"÷":{"ha":534,"x_min":41,"x_max":493,"o":"m 41 278 l 41 375 q 493 389 358 375 l 493 292 q 41 278 358 278 m 180 135 q 204 191 180 168 q 268 215 229 215 q 331 192 308 215 q 354 135 354 168 q 331 79 354 103 q 268 56 307 56 q 204 79 229 56 q 180 135 180 103 m 180 524 q 204 580 180 556 q 268 604 229 604 q 331 581 308 604 q 354 524 354 557 q 331 468 354 492 q 268 444 307 444 q 204 468 229 444 q 180 524 180 492 z "},"ø":{"ha":722,"x_min":41,"x_max":681,"o":"m 41 264 q 63 384 41 325 q 124 491 85 443 q 226 568 164 538 q 361 597 288 597 q 488 572 428 597 l 534 653 l 618 653 l 550 534 q 647 414 612 487 q 681 264 681 340 q 661 151 681 201 q 609 71 641 101 q 534 21 578 41 q 449 -6 491 1 q 361 -14 406 -14 q 241 1 296 -14 l 201 -69 l 118 -69 l 174 28 q 41 264 41 96 m 215 250 q 235 134 215 183 l 444 496 q 361 534 412 534 q 290 509 319 534 q 244 439 260 483 q 222 349 229 396 q 215 250 215 302 m 283 72 q 361 49 314 49 q 468 99 428 49 q 507 250 507 149 q 485 421 507 353 l 283 72 z "},"ù":{"ha":722,"x_min":41,"x_max":681,"o":"m 41 220 q 55 350 41 259 q 82 512 68 441 l 96 583 l 249 583 q 215 204 215 310 q 248 90 215 131 q 361 49 281 49 q 507 204 507 49 q 497 346 507 251 q 477 512 487 441 l 467 583 l 627 583 q 681 220 681 309 q 664 129 681 169 q 619 62 648 88 q 549 18 590 35 q 461 -6 508 1 q 361 -14 415 -14 q 260 -6 307 -14 q 173 18 214 1 q 103 62 132 35 q 58 129 75 88 q 41 220 41 169 m 193 808 q 209 845 193 829 q 248 861 225 861 q 301 835 277 861 q 433 685 380 753 l 412 667 q 233 754 243 749 q 193 808 193 772 z "},"ú":{"ha":722,"x_min":41,"x_max":681,"o":"m 41 220 q 55 350 41 259 q 82 512 68 441 l 96 583 l 249 583 q 215 204 215 310 q 248 90 215 131 q 361 49 281 49 q 507 204 507 49 q 497 346 507 251 q 477 512 487 441 l 467 583 l 627 583 q 681 220 681 309 q 664 129 681 169 q 619 62 648 88 q 549 18 590 35 q 461 -6 508 1 q 361 -14 415 -14 q 260 -6 307 -14 q 173 18 214 1 q 103 62 132 35 q 58 129 75 88 q 41 220 41 169 m 297 685 q 429 835 350 753 q 484 861 454 861 q 522 845 506 861 q 538 808 538 829 q 497 754 538 772 q 318 667 487 749 l 297 685 z "},"û":{"ha":722,"x_min":41,"x_max":681,"o":"m 41 220 q 55 350 41 259 q 82 512 68 441 l 96 583 l 249 583 q 215 204 215 310 q 248 90 215 131 q 361 49 281 49 q 507 204 507 49 q 497 346 507 251 q 477 512 487 441 l 467 583 l 627 583 q 681 220 681 309 q 664 129 681 169 q 619 62 648 88 q 549 18 590 35 q 461 -6 508 1 q 361 -14 415 -14 q 260 -6 307 -14 q 173 18 214 1 q 103 62 132 35 q 58 129 75 88 q 41 220 41 169 m 187 694 q 233 752 216 730 q 287 807 251 773 q 361 869 322 842 q 435 807 399 842 q 488 752 471 773 q 534 694 506 730 l 507 681 q 430 718 473 698 q 361 751 387 739 q 291 718 334 739 q 215 681 248 697 l 187 694 z "},"ü":{"ha":722,"x_min":41,"x_max":681,"o":"m 41 220 q 55 350 41 259 q 82 512 68 441 l 96 583 l 249 583 q 215 204 215 310 q 248 90 215 131 q 361 49 281 49 q 507 204 507 49 q 497 346 507 251 q 477 512 487 441 l 467 583 l 627 583 q 681 220 681 309 q 664 129 681 169 q 619 62 648 88 q 549 18 590 35 q 461 -6 508 1 q 361 -14 415 -14 q 260 -6 307 -14 q 173 18 214 1 q 103 62 132 35 q 58 129 75 88 q 41 220 41 169 m 163 753 q 184 805 163 784 q 236 827 206 827 q 288 805 267 827 q 309 753 309 784 q 288 702 309 723 q 236 681 267 681 q 184 702 206 681 q 163 753 163 723 m 412 753 q 434 805 412 783 q 486 827 456 827 q 537 805 517 827 q 558 753 558 784 q 537 702 558 722 q 486 681 517 681 q 434 702 456 681 q 412 753 412 723 z "},"ý":{"ha":736,"x_min":41,"x_max":694,"o":"m 41 385 q 62 479 41 438 q 119 544 83 519 q 200 582 155 568 q 298 597 245 595 l 298 534 q 215 429 215 514 q 464 90 215 219 l 534 583 l 694 583 l 628 92 q 581 -66 616 3 q 500 -176 545 -135 q 396 -243 455 -216 q 287 -279 338 -269 q 183 -292 237 -290 l 183 -229 q 262 -216 226 -227 q 325 -190 299 -205 q 371 -155 350 -176 q 406 -115 393 -134 q 429 -73 418 -97 q 445 -34 440 -49 q 454 0 449 -20 q 290 88 359 46 q 161 177 220 130 q 72 277 102 225 q 41 385 41 330 m 343 685 q 475 835 399 756 q 529 861 499 861 q 567 845 551 861 q 583 808 583 829 q 543 754 583 772 q 364 667 533 749 l 343 685 z "},"þ":{"ha":722,"x_min":56,"x_max":681,"o":"m 56 -278 l 56 861 l 222 861 l 222 543 q 411 597 300 597 q 606 527 532 597 q 681 326 681 456 q 656 211 681 265 q 584 111 632 157 q 455 32 535 64 q 271 -14 375 -1 l 271 49 q 449 138 391 68 q 507 296 507 207 q 464 448 507 395 q 340 500 420 500 q 222 473 290 500 l 222 -278 l 56 -278 z "},"ÿ":{"ha":736,"x_min":41,"x_max":694,"o":"m 41 385 q 62 479 41 438 q 119 544 83 519 q 200 582 155 568 q 298 597 245 595 l 298 534 q 215 429 215 514 q 464 90 215 219 l 534 583 l 694 583 l 628 92 q 581 -66 616 3 q 500 -176 545 -135 q 396 -243 455 -216 q 287 -279 338 -269 q 183 -292 237 -290 l 183 -229 q 262 -216 226 -227 q 325 -190 299 -205 q 371 -155 350 -176 q 406 -115 393 -134 q 429 -73 418 -97 q 445 -34 440 -49 q 454 0 449 -20 q 290 88 359 46 q 161 177 220 130 q 72 277 102 225 q 41 385 41 330 m 208 753 q 230 805 208 783 q 282 827 252 827 q 333 805 313 827 q 354 753 354 784 q 333 702 354 722 q 282 681 313 681 q 230 702 252 681 q 208 753 208 723 m 458 753 q 480 805 458 784 q 532 827 502 827 q 584 805 563 827 q 604 753 604 784 q 584 702 604 723 q 532 681 563 681 q 480 702 502 681 q 458 753 458 723 z "},"ı":{"ha":277,"x_min":56,"x_max":222,"o":"m 56 0 l 56 583 l 222 583 l 222 0 l 56 0 z "},"Œ":{"ha":1381,"x_min":56,"x_max":1340,"o":"m 56 386 q 71 525 56 456 q 121 657 87 594 q 204 769 155 721 q 323 846 252 817 q 479 875 395 875 q 708 802 615 875 l 708 861 l 1340 861 l 1340 778 l 889 778 l 889 493 l 1222 493 l 1222 431 l 889 431 l 889 83 l 1340 83 l 1340 0 l 708 0 l 708 57 q 479 -14 624 -14 q 357 -3 414 -14 q 242 36 299 8 q 145 108 186 64 q 80 223 105 152 q 56 386 56 294 m 250 367 q 312 140 250 218 q 479 62 374 62 q 646 140 585 62 q 708 367 708 218 q 695 524 708 450 q 656 661 682 598 q 585 762 630 724 q 479 799 539 799 q 374 762 420 799 q 302 661 329 724 q 263 524 276 598 q 250 367 250 450 z "},"œ":{"ha":1189,"x_min":41,"x_max":1147,"o":"m 41 264 q 63 384 41 325 q 124 491 85 443 q 226 568 164 538 q 361 597 288 597 q 591 497 500 597 q 835 597 683 597 q 877 596 856 597 q 930 587 898 594 q 991 566 963 579 q 1048 529 1019 553 q 1099 472 1078 505 q 1134 389 1120 439 q 1147 277 1147 338 l 734 277 l 734 339 l 966 339 q 828 534 963 534 q 682 277 682 534 q 730 105 682 161 q 856 49 779 49 q 968 74 917 49 q 1043 139 1020 100 l 1092 104 q 994 19 1060 51 q 842 -14 928 -14 q 597 61 684 -14 q 361 -14 514 -14 q 273 -6 315 -14 q 188 21 231 1 q 113 71 144 41 q 61 151 81 101 q 41 264 41 201 m 215 250 q 254 99 215 149 q 361 49 294 49 q 468 99 428 49 q 507 250 507 149 q 500 349 507 302 q 477 439 493 396 q 432 509 462 483 q 361 534 402 534 q 290 509 319 534 q 244 439 260 483 q 222 349 229 396 q 215 250 215 302 z "},"Ÿ":{"ha":903,"x_min":41,"x_max":875,"o":"m 41 663 q 65 755 41 714 q 126 820 88 796 q 208 856 164 844 q 298 868 252 868 l 298 796 q 250 745 270 781 q 229 660 229 708 q 514 322 229 486 l 694 861 l 875 861 l 583 0 l 410 0 l 486 215 q 155 425 269 315 q 41 663 41 534 m 298 1031 q 320 1083 298 1061 q 372 1104 342 1104 q 424 1083 404 1104 q 444 1031 444 1062 q 424 979 444 1000 q 372 958 403 958 q 320 980 342 958 q 298 1031 298 1001 m 549 1031 q 570 1083 549 1061 q 623 1104 592 1104 q 674 1083 654 1104 q 694 1031 694 1062 q 674 979 694 1000 q 623 958 653 958 q 571 980 593 958 q 549 1031 549 1001 z "},"ƒ":{"ha":855,"x_min":49,"x_max":807,"o":"m 49 -292 l 61 -229 q 151 -222 117 -229 q 210 -191 184 -214 q 250 -130 235 -167 q 278 -28 264 -93 l 393 521 l 282 521 l 294 583 l 406 583 l 415 629 q 464 750 430 701 q 550 826 498 799 q 664 864 602 852 q 807 875 725 875 l 794 812 q 704 805 738 812 q 646 774 671 798 q 606 713 621 750 q 578 611 592 677 l 572 583 l 732 583 l 720 521 l 559 521 l 440 -46 q 403 -147 428 -104 q 345 -217 378 -190 q 263 -261 311 -245 q 165 -285 216 -278 q 49 -292 114 -292 z "},"ˆ":{"ha":472,"x_min":62,"x_max":410,"o":"m 62 694 q 109 752 91 730 q 162 807 126 773 q 236 869 197 842 q 310 807 275 842 q 363 752 346 773 q 410 694 381 730 l 382 681 q 305 718 349 697 q 236 751 262 739 q 166 718 210 739 q 90 681 123 697 l 62 694 z "},"ˇ":{"ha":472,"x_min":62,"x_max":410,"o":"m 62 856 l 90 869 q 166 832 123 853 q 236 799 210 812 q 305 832 262 812 q 382 869 349 853 l 410 856 q 363 799 381 820 q 310 743 346 777 q 236 681 275 709 q 162 743 197 709 q 109 799 126 777 q 62 856 91 820 z "},"˘":{"ha":472,"x_min":49,"x_max":424,"o":"m 49 808 q 62 869 49 847 l 87 860 q 85 844 85 852 q 237 778 85 778 q 387 844 387 778 q 385 860 387 852 l 410 869 q 424 808 424 846 q 374 715 424 750 q 237 681 323 681 q 100 715 151 681 q 49 808 49 750 z "},"˙":{"ha":243,"x_min":35,"x_max":208,"o":"m 35 760 q 59 816 35 792 q 122 840 83 840 q 185 817 162 840 q 208 760 208 793 q 185 704 208 728 q 122 681 162 681 q 59 704 83 681 q 35 760 35 728 z "},"˚":{"ha":321,"x_min":56,"x_max":265,"o":"m 56 764 q 87 843 56 809 q 161 876 118 876 q 235 843 205 876 q 265 764 265 809 q 236 693 265 720 q 161 667 207 667 q 86 694 117 667 q 56 764 56 721 m 100 764 q 118 726 100 740 q 161 711 136 711 q 204 725 188 711 q 221 764 221 739 q 204 811 221 791 q 161 832 186 832 q 118 811 137 832 q 100 764 100 790 z "},"˛":{"ha":302,"x_min":56,"x_max":248,"o":"m 56 -186 q 67 -128 56 -156 q 99 -76 78 -100 q 135 -38 121 -52 q 174 -5 150 -24 q 180 0 178 -2 l 222 0 q 191 -40 202 -24 q 166 -90 179 -56 q 153 -158 153 -123 q 174 -226 153 -202 q 248 -250 195 -250 l 233 -285 q 179 -292 184 -292 q 87 -262 119 -292 q 56 -186 56 -233 z "},"˜":{"ha":511,"x_min":41,"x_max":469,"o":"m 41 714 q 189 842 58 842 q 291 820 216 842 q 390 799 367 799 q 419 808 402 799 q 446 835 437 817 l 469 827 q 452 771 463 795 q 429 734 441 747 q 401 714 417 722 q 371 704 385 706 q 342 701 358 701 q 230 724 315 701 q 127 747 144 747 q 94 739 108 747 q 61 705 79 730 l 41 714 z "},"˝":{"ha":587,"x_min":62,"x_max":525,"o":"m 62 685 q 195 835 115 753 q 249 861 219 861 q 287 845 271 861 q 302 808 302 829 q 262 754 302 772 q 83 667 252 749 l 62 685 m 285 685 q 416 835 340 756 q 471 861 441 861 q 509 845 493 861 q 525 808 525 829 q 485 754 525 772 q 306 667 475 749 l 285 685 z "},"Ω":{"ha":958,"x_min":56,"x_max":903,"o":"m 56 489 q 80 634 56 569 q 146 744 105 700 q 242 818 187 788 q 357 862 298 848 q 479 875 416 875 q 602 862 543 875 q 716 818 661 848 q 813 744 772 788 q 878 634 854 700 q 903 489 903 569 q 887 391 903 439 q 840 296 871 342 q 755 214 809 251 q 632 157 702 177 l 632 83 l 889 83 l 889 0 l 534 0 l 534 215 q 619 254 584 225 q 673 325 654 283 q 700 412 692 368 q 708 509 708 457 q 644 715 708 632 q 479 799 580 799 q 315 715 379 799 q 250 509 250 631 q 258 412 250 457 q 285 325 267 368 q 339 254 304 283 q 424 215 374 225 l 424 0 l 69 0 l 69 83 l 326 83 l 326 157 q 203 214 256 177 q 118 296 149 251 q 71 391 87 342 q 56 489 56 439 z "},"π":{"ha":736,"x_min":56,"x_max":681,"o":"m 56 0 l 56 583 l 681 583 l 681 0 l 514 0 l 514 500 l 222 500 l 222 0 l 56 0 z "},"Ё":{"ha":743,"x_min":69,"x_max":701,"o":"m 69 0 l 69 861 l 701 861 l 701 778 l 250 778 l 250 493 l 583 493 l 583 431 l 250 431 l 250 83 l 701 83 l 701 0 l 69 0 m 191 1031 q 212 1083 191 1061 q 264 1104 233 1104 q 316 1083 295 1104 q 336 1031 336 1062 q 315 979 336 1000 q 264 958 294 958 q 212 980 234 958 q 191 1031 191 1001 m 440 1031 q 462 1083 440 1061 q 514 1104 484 1104 q 566 1083 545 1104 q 586 1031 586 1062 q 565 979 586 1000 q 514 958 545 958 q 462 980 484 958 q 440 1031 440 1001 z "},"А":{"ha":993,"x_min":28,"x_max":965,"o":"m 28 123 q 66 282 28 188 q 160 467 105 377 q 277 645 214 557 q 385 789 340 733 q 452 868 429 845 l 625 868 q 777 431 677 684 q 965 0 878 177 l 771 0 q 464 768 658 210 q 438 726 454 753 q 380 623 422 699 q 307 483 338 548 q 249 343 275 417 q 222 227 222 270 q 298 155 222 155 q 433 192 355 155 q 567 275 511 229 l 610 193 q 516 129 556 155 q 414 67 476 102 q 291 12 351 31 q 179 -7 231 -7 q 68 25 109 -7 q 28 123 28 57 z "},"Б":{"ha":861,"x_min":69,"x_max":806,"o":"m 69 0 l 69 861 l 618 861 l 618 778 l 250 778 l 250 83 l 431 83 q 562 125 513 83 q 611 250 611 166 q 564 363 611 317 q 431 410 516 410 l 319 410 l 319 493 l 444 493 q 708 426 610 493 q 806 245 806 359 q 792 166 806 202 q 755 104 778 130 q 701 60 732 79 q 637 30 669 41 q 568 12 604 19 q 502 2 531 5 q 444 0 473 0 l 69 0 z "},"В":{"ha":888,"x_min":69,"x_max":833,"o":"m 69 0 l 69 861 l 486 861 q 717 808 635 861 q 799 656 799 755 q 602 461 799 480 q 769 399 705 454 q 833 245 833 344 q 810 139 833 185 q 750 68 786 94 q 666 26 715 42 q 574 5 616 10 q 486 0 532 0 l 69 0 m 250 83 l 458 83 q 590 125 541 83 q 639 250 639 166 q 591 363 639 317 q 458 410 544 410 l 319 410 l 319 493 l 472 493 q 618 633 618 493 q 472 778 618 778 l 250 778 l 250 83 z "},"Г":{"ha":673,"x_min":69,"x_max":646,"o":"m 69 0 l 69 861 l 646 861 l 646 778 l 250 778 l 250 0 l 69 0 z "},"Д":{"ha":930,"x_min":28,"x_max":917,"o":"m 28 0 q 51 32 37 12 q 102 116 65 53 q 167 242 139 180 q 218 392 195 305 q 241 554 241 478 q 161 861 241 692 l 833 861 l 833 104 l 917 104 l 917 -193 l 859 -193 l 819 0 l 125 0 l 86 -193 l 28 -193 l 28 0 m 278 83 l 653 83 l 653 778 l 282 778 q 385 435 385 601 q 278 83 385 262 z "},"Е":{"ha":743,"x_min":69,"x_max":701,"o":"m 69 0 l 69 861 l 701 861 l 701 778 l 250 778 l 250 493 l 583 493 l 583 431 l 250 431 l 250 83 l 701 83 l 701 0 l 69 0 z "},"Ж":{"ha":1347,"x_min":28,"x_max":1320,"o":"m 28 0 l 292 340 q 95 511 157 430 q 32 676 32 593 q 47 753 32 718 q 87 810 62 787 q 146 849 113 833 q 215 872 180 865 q 288 879 250 879 l 288 807 q 243 764 259 793 q 227 697 227 736 q 246 611 227 656 q 306 513 265 565 q 417 405 346 461 q 583 296 488 349 l 583 861 l 764 861 l 764 296 q 930 405 859 349 q 1042 513 1002 461 q 1102 611 1082 565 q 1121 697 1121 656 q 1105 764 1121 736 q 1060 807 1088 793 l 1060 879 q 1132 872 1097 879 q 1201 849 1168 865 q 1259 810 1234 833 q 1300 753 1284 787 q 1315 676 1315 718 q 1252 511 1315 593 q 1055 340 1190 430 l 1320 0 l 1104 0 l 909 257 q 764 180 823 210 l 764 0 l 583 0 l 583 180 q 437 257 524 210 l 243 0 l 28 0 z "},"З":{"ha":812,"x_min":28,"x_max":757,"o":"m 28 174 q 168 38 77 89 q 389 -14 258 -14 q 484 -7 437 -14 q 581 17 530 -1 q 670 63 632 35 q 732 138 708 91 q 757 245 757 185 q 737 335 757 295 q 684 401 718 376 q 610 443 650 427 q 525 461 570 458 q 672 520 615 471 q 729 656 729 570 q 637 814 729 753 q 404 875 545 875 q 222 838 304 875 q 97 736 140 800 l 180 700 q 382 785 248 785 q 496 747 450 785 q 542 633 542 710 q 497 526 542 559 q 382 493 452 493 l 326 493 l 326 410 l 382 410 q 515 363 467 410 q 562 250 562 317 q 506 122 562 167 q 366 77 449 77 q 217 112 279 77 q 125 196 155 147 l 28 174 z "},"И":{"ha":958,"x_min":56,"x_max":889,"o":"m 56 518 q 160 861 56 664 l 354 861 q 264 645 300 769 q 229 386 229 521 q 271 90 229 209 l 681 861 l 889 861 l 889 0 l 708 0 l 708 701 l 334 0 l 215 0 q 199 43 215 11 q 159 121 182 75 q 112 226 136 168 q 72 361 88 283 q 56 518 56 439 z "},"Й":{"ha":958,"x_min":56,"x_max":889,"o":"m 56 518 q 160 861 56 664 l 354 861 q 264 645 300 769 q 229 386 229 521 q 271 90 229 209 l 681 861 l 889 861 l 889 0 l 708 0 l 708 701 l 334 0 l 215 0 q 199 43 215 11 q 159 121 182 75 q 112 226 136 168 q 72 361 88 283 q 56 518 56 439 m 340 1086 q 354 1147 340 1125 l 379 1137 q 376 1122 376 1129 q 529 1055 376 1055 q 679 1122 679 1055 q 676 1137 679 1129 l 701 1147 q 715 1086 715 1124 q 665 993 715 1027 q 529 958 615 958 q 392 993 443 958 q 340 1086 340 1028 z "},"К":{"ha":903,"x_min":69,"x_max":854,"o":"m 69 0 l 69 863 l 250 863 l 250 269 q 440 385 359 325 q 567 501 522 446 q 634 606 612 557 q 656 697 656 654 q 640 764 656 736 q 595 807 623 793 l 595 879 q 667 872 631 879 q 736 849 703 865 q 794 810 769 833 q 834 753 819 787 q 850 676 850 718 q 787 511 850 593 q 590 340 724 430 l 854 0 l 639 0 l 444 257 q 250 158 336 197 l 250 0 l 69 0 z "},"Л":{"ha":958,"x_min":28,"x_max":889,"o":"m 28 0 q 51 32 37 12 q 102 116 65 53 q 167 242 139 180 q 218 392 195 305 q 241 554 241 478 q 161 861 241 692 l 889 861 l 889 0 l 708 0 l 708 778 l 282 778 q 385 435 385 601 q 222 0 385 222 l 28 0 z "},"М":{"ha":1132,"x_min":41,"x_max":1090,"o":"m 41 256 q 98 544 41 395 q 264 861 155 692 l 458 861 l 597 180 l 785 861 l 965 861 l 1090 0 l 909 0 l 812 643 l 632 0 l 458 0 l 298 764 q 222 335 222 574 q 278 0 222 174 l 85 0 q 41 256 41 130 z "},"Н":{"ha":916,"x_min":69,"x_max":847,"o":"m 69 0 l 69 863 l 250 863 l 250 486 l 667 486 l 667 861 l 847 861 l 847 424 q 839 306 847 362 q 819 208 831 249 q 792 130 807 166 q 762 71 777 94 q 734 31 747 47 q 715 6 722 14 l 707 -1 l 589 -1 q 597 11 592 3 q 616 53 602 19 q 640 130 629 87 q 658 250 650 173 q 667 416 667 326 l 250 416 l 250 0 l 69 0 z "},"О":{"ha":958,"x_min":56,"x_max":903,"o":"m 56 386 q 71 525 56 456 q 121 657 87 594 q 204 769 155 721 q 323 846 252 817 q 479 875 395 875 q 635 846 564 875 q 755 769 706 817 q 838 657 804 721 q 887 525 871 594 q 903 386 903 456 q 878 223 903 294 q 813 108 853 152 q 716 36 772 64 q 602 -3 660 8 q 479 -14 545 -14 q 357 -3 414 -14 q 242 36 299 8 q 145 108 186 64 q 80 223 105 152 q 56 386 56 294 m 250 367 q 312 140 250 218 q 479 62 374 62 q 646 140 585 62 q 708 367 708 218 q 695 524 708 450 q 656 661 682 598 q 585 762 630 724 q 479 799 539 799 q 374 762 420 799 q 302 661 329 724 q 263 524 276 598 q 250 367 250 450 z "},"П":{"ha":888,"x_min":69,"x_max":819,"o":"m 69 0 l 69 861 l 819 861 l 819 0 l 639 0 l 639 778 l 250 778 l 250 0 l 69 0 z "},"Р":{"ha":903,"x_min":69,"x_max":861,"o":"m 69 0 l 69 861 l 473 861 q 547 861 521 861 q 621 856 574 860 q 695 844 667 852 q 759 821 724 837 q 814 783 794 805 q 847 726 833 761 q 861 647 861 691 q 842 564 861 606 q 793 488 823 522 q 716 417 763 453 q 628 354 670 380 q 529 297 586 328 q 433 249 471 267 q 343 207 394 231 q 319 196 327 199 l 319 321 q 485 409 423 372 q 590 483 547 446 q 650 554 633 519 q 667 633 667 589 q 658 687 667 663 q 637 725 650 711 q 606 751 625 740 q 570 767 586 762 q 533 774 555 772 q 500 778 511 777 q 473 778 489 778 l 250 778 l 250 0 l 69 0 z "},"С":{"ha":840,"x_min":56,"x_max":812,"o":"m 56 412 q 86 581 56 498 q 170 729 117 664 q 305 835 224 795 q 479 875 386 875 q 651 838 573 875 q 772 736 730 800 l 703 686 q 621 755 673 726 q 514 785 568 785 q 405 763 452 785 q 329 705 358 741 q 282 619 300 669 q 257 517 264 568 q 250 406 250 465 q 271 256 250 321 q 327 153 291 191 q 407 96 362 115 q 503 77 451 77 q 651 112 589 77 q 743 196 713 147 l 812 146 q 493 -14 720 -14 q 371 -2 429 -14 q 253 40 312 10 q 152 117 194 71 q 82 240 109 164 q 56 412 56 315 z "},"Т":{"ha":777,"x_min":28,"x_max":750,"o":"m 28 778 l 28 861 l 750 861 l 750 778 l 486 778 l 486 0 l 292 0 l 292 778 l 28 778 z "},"У":{"ha":847,"x_min":41,"x_max":791,"o":"m 41 715 q 46 778 41 747 q 55 820 51 808 q 68 861 58 833 l 262 861 q 236 701 236 795 q 504 437 236 523 l 611 861 l 791 861 l 681 416 q 638 278 661 335 q 579 167 616 220 q 492 80 543 114 q 368 21 442 45 q 195 -14 294 -3 l 167 56 q 272 83 225 64 q 351 127 319 102 q 408 186 383 152 q 448 255 433 221 q 476 330 463 288 q 153 494 264 393 q 41 715 41 595 z "},"Ф":{"ha":1000,"x_min":56,"x_max":945,"o":"m 56 386 q 71 487 56 434 q 116 593 85 540 q 190 691 147 646 q 293 769 232 736 q 424 814 354 802 l 424 861 l 576 861 l 576 814 q 707 769 646 802 q 811 691 768 736 q 884 593 853 646 q 930 487 915 540 q 945 386 945 434 q 924 264 945 319 q 868 173 903 210 q 785 109 833 136 q 685 67 736 81 q 576 46 634 52 l 576 0 l 424 0 l 424 46 q 315 67 366 52 q 215 109 264 81 q 132 173 167 136 q 77 264 98 210 q 56 386 56 319 m 250 367 q 298 211 250 273 q 424 127 346 149 l 424 728 q 296 590 341 692 q 250 367 250 488 m 576 127 q 702 211 654 149 q 750 367 750 273 q 705 590 750 488 q 576 728 659 692 l 576 127 z "},"Х":{"ha":833,"x_min":28,"x_max":806,"o":"m 28 0 l 330 418 l 41 861 l 243 861 l 447 549 l 667 861 l 771 861 l 497 472 l 806 0 l 604 0 l 380 342 l 132 0 l 28 0 z "},"Ц":{"ha":916,"x_min":69,"x_max":903,"o":"m 69 0 l 69 861 l 250 861 l 250 83 l 639 83 l 639 861 l 819 861 l 819 104 l 903 104 l 903 -193 l 844 -193 l 806 0 l 69 0 z "},"Ч":{"ha":833,"x_min":41,"x_max":764,"o":"m 41 631 q 96 861 41 727 l 290 861 q 236 640 236 758 q 284 498 236 545 q 416 452 332 452 q 583 479 503 452 l 583 861 l 764 861 l 764 0 l 583 0 l 583 383 q 347 326 470 326 q 116 406 191 326 q 41 631 41 486 z "},"Ш":{"ha":1416,"x_min":69,"x_max":1348,"o":"m 69 0 l 69 861 l 250 861 l 250 83 l 618 83 l 618 861 l 799 861 l 799 83 l 1166 83 l 1166 861 l 1348 861 l 1348 0 l 69 0 z "},"Щ":{"ha":1444,"x_min":69,"x_max":1430,"o":"m 69 0 l 69 861 l 250 861 l 250 83 l 618 83 l 618 861 l 799 861 l 799 83 l 1166 83 l 1166 861 l 1348 861 l 1348 104 l 1430 104 l 1430 -193 l 1372 -193 l 1333 0 l 69 0 z "},"Ъ":{"ha":1014,"x_min":28,"x_max":958,"o":"m 28 778 l 28 861 l 431 861 l 431 69 l 472 69 q 565 74 523 69 q 644 93 606 79 q 708 128 682 106 q 748 184 733 150 q 764 264 764 218 q 745 354 764 314 q 701 418 726 394 q 638 460 675 441 q 573 487 600 479 q 514 504 547 496 q 500 507 504 506 l 500 632 q 713 571 622 612 q 857 478 805 530 q 933 369 909 426 q 958 252 958 313 q 934 155 958 200 q 865 75 910 110 q 748 20 819 41 q 587 0 676 0 l 250 0 l 250 778 l 28 778 z "},"Ы":{"ha":1083,"x_min":69,"x_max":1014,"o":"m 69 0 l 69 861 l 250 861 l 250 69 l 292 69 q 384 74 342 69 q 464 93 426 79 q 527 128 502 106 q 568 184 553 150 q 583 264 583 218 q 565 354 583 314 q 520 418 546 394 q 457 460 495 441 q 393 487 420 479 q 334 504 366 496 q 319 507 323 506 l 319 632 q 533 571 441 612 q 676 478 625 530 q 753 369 728 426 q 778 252 778 313 q 754 155 778 200 q 684 75 730 110 q 567 20 639 41 q 407 0 496 0 l 69 0 m 833 0 l 833 861 l 1014 861 l 1014 0 l 833 0 z "},"Ь":{"ha":833,"x_min":69,"x_max":778,"o":"m 69 0 l 69 861 l 250 861 l 250 69 l 292 69 q 384 74 342 69 q 464 93 426 79 q 527 128 502 106 q 568 184 553 150 q 583 264 583 218 q 565 354 583 314 q 520 418 546 394 q 457 460 495 441 q 393 487 420 479 q 334 504 366 496 q 319 507 323 506 l 319 632 q 533 571 441 612 q 676 478 625 530 q 753 369 728 426 q 778 252 778 313 q 754 155 778 200 q 684 75 730 110 q 567 20 639 41 q 407 0 496 0 l 69 0 z "},"Э":{"ha":840,"x_min":28,"x_max":785,"o":"m 28 146 l 97 196 q 189 112 127 147 q 338 77 251 77 q 433 95 389 77 q 512 151 477 114 q 568 251 547 189 q 590 396 589 314 l 222 396 l 222 458 l 589 458 q 576 557 586 512 q 548 646 567 603 q 499 719 528 688 q 427 767 471 749 q 326 785 382 785 q 220 755 273 785 q 138 686 167 726 l 68 736 q 189 838 111 800 q 361 875 267 875 q 535 835 454 875 q 670 729 616 795 q 754 581 724 664 q 785 412 785 498 q 758 240 785 315 q 689 117 731 164 q 587 40 646 71 q 470 -2 528 10 q 347 -14 411 -14 q 28 146 121 -14 z "},"Ю":{"ha":1250,"x_min":69,"x_max":1194,"o":"m 69 0 l 69 861 l 250 861 l 250 486 l 355 486 q 387 603 366 547 q 444 709 408 659 q 526 795 480 759 q 635 853 572 832 q 771 875 699 875 q 927 846 856 875 q 1046 769 998 817 q 1129 657 1095 721 q 1179 525 1163 594 q 1194 386 1194 456 q 1170 223 1194 294 q 1104 108 1145 152 q 1008 36 1064 64 q 894 -3 951 8 q 771 -14 836 -14 q 648 -3 706 -14 q 534 36 591 8 q 437 108 477 64 q 372 223 397 152 q 347 386 347 294 l 347 403 l 250 403 l 250 0 l 69 0 m 542 367 q 604 140 542 218 q 771 62 666 62 q 938 140 876 62 q 1000 367 1000 218 q 987 524 1000 450 q 948 661 975 598 q 876 762 922 724 q 771 799 831 799 q 666 762 711 799 q 594 661 621 724 q 555 524 568 598 q 542 367 542 450 z "},"Я":{"ha":937,"x_min":28,"x_max":868,"o":"m 28 0 l 250 0 l 472 268 q 618 192 530 234 l 618 317 q 257 646 257 503 q 460 778 257 778 l 688 778 l 688 0 l 868 0 l 868 861 l 460 861 q 384 861 413 861 q 309 856 355 860 q 233 843 262 851 q 167 820 203 836 q 111 781 132 804 q 77 724 91 759 q 62 646 62 690 q 122 498 62 571 q 313 347 182 425 l 28 0 z "},"а":{"ha":798,"x_min":41,"x_max":771,"o":"m 41 139 q 66 255 41 195 q 139 372 91 315 q 250 477 186 429 q 398 557 313 525 q 575 597 484 589 q 657 286 605 448 q 771 0 709 123 l 590 0 q 494 236 543 90 q 422 500 446 382 q 274 368 333 460 q 215 187 215 275 q 243 111 215 138 q 326 83 271 83 q 479 132 402 83 l 500 77 q 370 9 445 32 q 218 -14 296 -14 q 92 26 142 -14 q 41 139 41 66 z "},"б":{"ha":722,"x_min":41,"x_max":681,"o":"m 41 319 q 45 396 41 353 q 57 492 48 438 q 79 599 66 547 q 114 702 92 651 q 164 790 136 752 q 232 851 192 828 q 318 875 271 875 q 410 860 338 875 q 526 846 483 846 q 639 875 608 846 l 639 819 q 624 801 629 807 q 605 781 619 794 q 576 761 590 768 q 538 748 562 754 q 486 742 514 742 q 411 756 459 742 q 336 771 363 771 q 228 578 241 771 q 361 597 290 597 q 496 568 434 597 q 597 491 557 538 q 659 384 637 443 q 681 264 681 325 q 661 151 681 201 q 609 71 641 101 q 534 21 578 41 q 449 -6 491 1 q 361 -14 406 -14 q 273 -5 315 -14 q 188 26 231 3 q 113 85 144 49 q 61 181 81 121 q 41 319 41 241 m 215 250 q 254 99 215 149 q 361 49 294 49 q 468 99 428 49 q 507 250 507 149 q 500 349 507 302 q 477 439 493 396 q 432 509 462 483 q 361 534 402 534 q 290 509 319 534 q 244 439 260 483 q 222 349 229 396 q 215 250 215 302 z "},"в":{"ha":659,"x_min":56,"x_max":618,"o":"m 56 0 l 56 583 l 386 583 q 533 545 481 583 q 585 441 585 506 q 549 348 585 382 q 461 301 513 313 q 574 260 530 296 q 618 161 618 224 q 598 83 618 116 q 544 33 578 50 q 471 8 509 16 q 390 0 433 0 l 56 0 m 222 62 l 335 62 q 411 86 378 62 q 444 161 444 110 q 328 273 444 273 l 271 273 l 271 328 l 335 328 q 400 352 374 328 q 425 424 425 376 q 399 497 425 473 q 335 521 373 521 l 222 521 l 222 62 z "},"г":{"ha":479,"x_min":56,"x_max":444,"o":"m 56 0 l 56 583 l 444 583 l 444 521 l 222 521 l 222 0 l 56 0 z "},"д":{"ha":729,"x_min":35,"x_max":715,"o":"m 35 0 q 51 19 41 7 q 87 70 61 31 q 134 149 114 109 q 171 247 154 189 q 187 359 187 305 q 173 473 187 413 q 132 583 158 534 l 646 583 l 646 62 l 715 62 l 715 -123 l 671 -123 l 632 0 l 118 0 l 79 -123 l 35 -123 l 35 0 m 220 521 q 296 410 265 481 q 326 268 326 338 q 268 62 326 161 l 479 62 l 479 521 l 220 521 z "},"е":{"ha":722,"x_min":41,"x_max":681,"o":"m 41 281 q 80 436 41 365 q 194 553 119 508 q 368 597 270 597 q 410 596 389 597 q 464 587 431 594 q 524 566 496 579 q 582 529 552 553 q 633 472 612 505 q 667 389 654 439 q 681 277 681 338 l 268 277 l 268 339 l 500 339 q 361 534 496 534 q 215 277 215 534 q 263 105 215 161 q 389 49 311 49 q 502 74 450 49 q 576 139 553 100 l 625 104 q 528 19 593 51 q 375 -14 462 -14 q 244 3 303 -14 q 139 54 185 20 q 67 146 93 88 q 41 281 41 204 z "},"ж":{"ha":972,"x_min":35,"x_max":937,"o":"m 35 0 l 216 220 q 111 298 153 254 q 56 376 70 341 q 41 444 41 412 q 63 518 41 487 q 120 566 85 550 q 192 590 156 583 q 264 597 227 597 l 264 534 q 227 510 239 529 q 215 450 215 491 q 403 215 215 321 l 403 583 l 570 583 l 570 215 q 757 450 757 320 q 745 510 757 491 q 708 534 732 529 l 708 597 q 780 590 745 597 q 851 566 816 583 q 909 518 887 550 q 930 444 930 487 q 916 376 930 412 q 861 298 902 341 q 755 220 819 254 l 937 0 l 750 0 l 621 161 q 607 155 615 159 q 589 145 600 151 q 570 135 578 139 l 570 0 l 403 0 l 403 135 q 351 161 353 161 l 222 0 l 35 0 z "},"з":{"ha":597,"x_min":35,"x_max":555,"o":"m 35 121 l 94 132 q 257 56 153 56 q 382 175 382 56 q 369 230 382 207 q 334 266 355 254 q 290 282 312 277 q 244 288 268 288 l 244 340 q 329 365 296 340 q 361 440 361 390 q 332 510 361 486 q 256 534 303 534 q 134 479 172 534 l 75 493 q 158 568 102 539 q 304 597 215 597 q 453 557 393 597 q 513 449 513 517 q 500 393 513 418 q 473 356 488 369 q 435 334 457 343 q 403 322 414 324 q 382 318 392 319 q 436 308 408 317 q 492 282 464 298 q 537 237 519 265 q 555 175 555 210 q 533 89 555 126 q 472 30 511 52 q 387 -3 434 8 q 285 -14 339 -14 q 138 19 208 -14 q 35 121 68 51 z "},"и":{"ha":757,"x_min":41,"x_max":701,"o":"m 41 338 q 135 583 41 450 l 307 583 q 232 413 253 484 q 211 271 211 342 q 241 65 211 151 l 518 583 l 701 583 l 701 0 l 534 0 l 534 472 l 275 0 l 191 0 q 175 53 191 26 q 138 108 160 81 q 94 167 116 136 q 57 243 72 198 q 41 338 41 288 z "},"й":{"ha":757,"x_min":41,"x_max":701,"o":"m 41 338 q 135 583 41 450 l 307 583 q 232 413 253 484 q 211 271 211 342 q 241 65 211 151 l 518 583 l 701 583 l 701 0 l 534 0 l 534 472 l 275 0 l 191 0 q 175 53 191 26 q 138 108 160 81 q 94 167 116 136 q 57 243 72 198 q 41 338 41 288 m 208 808 q 222 869 208 846 l 248 860 q 244 844 244 850 q 397 778 244 778 q 547 844 547 778 q 545 860 547 852 l 570 869 q 583 808 583 847 q 533 715 583 749 q 397 681 484 681 q 259 715 311 681 q 208 808 208 750 z "},"к":{"ha":708,"x_min":56,"x_max":673,"o":"m 56 0 l 56 583 l 222 583 l 222 231 q 413 353 333 283 q 493 478 493 422 q 480 514 493 500 q 444 534 467 529 l 444 597 q 501 594 473 597 q 560 582 530 591 q 614 559 591 573 q 652 523 637 546 q 667 472 667 500 q 492 275 667 370 l 673 0 l 486 0 l 350 203 l 222 147 l 222 0 l 56 0 z "},"л":{"ha":701,"x_min":35,"x_max":646,"o":"m 35 0 q 51 19 41 7 q 87 70 61 31 q 134 149 114 109 q 171 247 154 189 q 187 359 187 305 q 173 473 187 413 q 132 583 158 534 l 646 583 l 646 0 l 479 0 l 479 521 l 220 521 q 296 410 265 481 q 326 268 326 338 q 224 0 326 126 l 35 0 z "},"м":{"ha":993,"x_min":41,"x_max":965,"o":"m 41 179 q 54 269 41 224 q 87 348 67 313 q 133 416 108 383 q 182 474 157 448 q 227 520 207 500 q 260 557 248 541 q 273 583 273 574 l 440 583 l 551 136 l 677 583 l 857 583 l 965 0 l 794 0 l 714 475 l 582 0 l 419 0 l 298 514 q 215 199 215 388 q 225 93 215 142 q 247 22 236 43 l 257 0 l 77 0 q 60 38 66 22 q 47 93 54 55 q 41 179 41 131 z "},"н":{"ha":708,"x_min":56,"x_max":653,"o":"m 56 0 l 56 583 l 222 583 l 222 334 l 486 334 l 486 347 q 486 421 486 396 q 480 490 485 447 q 465 583 475 532 l 632 583 q 647 495 640 557 q 653 364 653 433 q 618 151 653 247 q 536 0 584 55 l 404 0 q 436 61 423 34 q 465 146 449 88 q 486 271 481 204 l 222 271 l 222 0 l 56 0 z "},"о":{"ha":722,"x_min":41,"x_max":681,"o":"m 41 264 q 63 384 41 325 q 124 491 85 443 q 226 568 164 538 q 361 597 288 597 q 496 568 434 597 q 597 491 557 538 q 659 384 637 443 q 681 264 681 325 q 661 151 681 201 q 609 71 641 101 q 534 21 578 41 q 449 -6 491 1 q 361 -14 406 -14 q 273 -6 315 -14 q 188 21 231 1 q 113 71 144 41 q 61 151 81 101 q 41 264 41 201 m 215 250 q 254 99 215 149 q 361 49 294 49 q 468 99 428 49 q 507 250 507 149 q 500 349 507 302 q 477 439 493 396 q 432 509 462 483 q 361 534 402 534 q 290 509 319 534 q 244 439 260 483 q 222 349 229 396 q 215 250 215 302 z "},"п":{"ha":680,"x_min":56,"x_max":625,"o":"m 56 0 l 56 583 l 625 583 l 625 0 l 458 0 l 458 521 l 222 521 l 222 0 l 56 0 z "},"р":{"ha":722,"x_min":56,"x_max":681,"o":"m 56 -278 l 56 583 l 222 583 l 222 543 q 411 597 300 597 q 606 527 532 597 q 681 326 681 456 q 656 211 681 265 q 584 111 632 157 q 455 32 535 64 q 271 -14 375 -1 l 271 49 q 449 138 391 68 q 507 296 507 207 q 464 448 507 395 q 340 500 420 500 q 222 473 290 500 l 222 -278 l 56 -278 z "},"с":{"ha":639,"x_min":41,"x_max":604,"o":"m 41 282 q 78 435 41 363 q 189 552 115 506 q 358 597 262 597 q 487 574 426 597 q 576 507 548 550 l 528 472 q 474 516 508 498 q 403 534 439 534 q 215 278 215 534 q 264 106 215 163 q 389 49 313 49 q 492 74 449 49 q 555 132 534 98 l 604 97 q 510 15 572 44 q 368 -14 448 -14 q 281 -5 323 -14 q 194 24 238 3 q 116 78 149 45 q 62 163 83 110 q 41 282 41 216 z "},"т":{"ha":555,"x_min":28,"x_max":528,"o":"m 28 521 l 28 583 l 528 583 l 528 521 l 361 521 l 361 0 l 195 0 l 195 521 l 28 521 z "},"у":{"ha":736,"x_min":41,"x_max":694,"o":"m 41 385 q 62 479 41 438 q 119 544 83 519 q 200 582 155 568 q 298 597 245 595 l 298 534 q 215 429 215 514 q 464 90 215 219 l 534 583 l 694 583 l 628 92 q 581 -66 616 3 q 500 -176 545 -135 q 396 -243 455 -216 q 287 -279 338 -269 q 183 -292 237 -290 l 183 -229 q 262 -216 226 -227 q 325 -190 299 -205 q 371 -155 350 -176 q 406 -115 393 -134 q 429 -73 418 -97 q 445 -34 440 -49 q 454 0 449 -20 q 290 88 359 46 q 161 177 220 130 q 72 277 102 225 q 41 385 41 330 z "},"ф":{"ha":888,"x_min":41,"x_max":847,"o":"m 41 278 q 64 386 41 333 q 126 482 86 439 q 227 556 166 526 q 361 595 288 586 l 361 861 l 528 861 l 528 595 q 661 556 600 586 q 762 482 722 526 q 825 386 802 439 q 847 278 847 333 q 821 152 847 207 q 748 64 794 97 q 647 13 702 31 q 528 -11 593 -5 l 528 -278 l 361 -278 l 361 -11 q 241 13 296 -5 q 140 64 186 31 q 68 152 94 97 q 41 278 41 207 m 215 264 q 253 123 215 176 q 361 54 290 69 l 361 526 q 278 469 312 511 q 229 374 243 426 q 215 264 215 321 m 528 54 q 636 123 598 69 q 673 264 673 176 q 659 374 673 321 q 611 469 645 426 q 528 526 576 511 l 528 54 z "},"х":{"ha":625,"x_min":14,"x_max":611,"o":"m 14 0 l 236 271 l 21 583 l 208 583 l 336 393 l 493 583 l 576 583 l 376 338 l 611 0 l 424 0 l 275 215 l 97 0 l 14 0 z "},"ц":{"ha":708,"x_min":56,"x_max":694,"o":"m 56 0 l 56 583 l 222 583 l 222 62 l 458 62 l 458 583 l 625 583 l 625 62 l 694 62 l 694 -123 l 650 -123 l 611 0 l 56 0 z "},"ч":{"ha":687,"x_min":41,"x_max":632,"o":"m 41 370 q 68 488 41 428 q 125 583 94 548 l 267 583 q 229 492 242 545 q 215 397 215 440 q 335 250 215 250 q 465 278 391 250 l 465 583 l 632 583 l 632 0 l 465 0 l 465 208 q 268 153 372 153 q 100 214 159 153 q 41 370 41 275 z "},"ш":{"ha":944,"x_min":56,"x_max":889,"o":"m 56 0 l 56 583 l 222 583 l 222 62 l 389 62 l 389 583 l 555 583 l 555 62 l 722 62 l 722 583 l 889 583 l 889 0 l 56 0 z "},"щ":{"ha":972,"x_min":56,"x_max":958,"o":"m 56 0 l 56 583 l 222 583 l 222 62 l 389 62 l 389 583 l 555 583 l 555 62 l 722 62 l 722 583 l 889 583 l 889 62 l 958 62 l 958 -123 l 914 -123 l 875 0 l 56 0 z "},"ъ":{"ha":777,"x_min":28,"x_max":743,"o":"m 28 521 l 28 583 l 361 583 l 361 62 l 453 62 q 570 175 570 62 q 526 283 570 239 q 410 336 483 326 l 410 397 q 576 363 501 391 q 697 287 650 336 q 743 175 743 237 q 722 94 743 129 q 664 39 700 59 q 585 10 627 20 q 494 0 542 0 l 195 0 l 195 521 l 28 521 z "},"ы":{"ha":888,"x_min":56,"x_max":833,"o":"m 56 0 l 56 583 l 222 583 l 222 62 l 314 62 q 431 175 431 62 q 387 283 431 239 q 271 336 344 326 l 271 397 q 437 363 362 391 q 558 287 511 336 q 604 175 604 237 q 583 94 604 129 q 525 39 561 59 q 446 10 488 20 q 355 0 403 0 l 56 0 m 667 0 l 667 583 l 833 583 l 833 0 l 667 0 z "},"ь":{"ha":639,"x_min":56,"x_max":604,"o":"m 56 0 l 56 583 l 222 583 l 222 62 l 314 62 q 431 175 431 62 q 387 283 431 239 q 271 336 344 326 l 271 397 q 437 363 362 391 q 558 287 511 336 q 604 175 604 237 q 583 94 604 129 q 525 39 561 59 q 446 10 488 20 q 355 0 403 0 l 56 0 z "},"э":{"ha":639,"x_min":35,"x_max":597,"o":"m 35 97 l 83 132 q 147 74 104 98 q 250 49 190 49 q 372 102 323 49 q 424 264 421 156 l 146 264 l 146 326 l 422 326 q 236 534 408 534 q 165 516 199 534 q 111 472 131 498 l 62 507 q 152 574 91 550 q 281 597 213 597 q 450 552 376 597 q 561 435 524 506 q 597 282 597 363 q 576 163 597 216 q 523 78 555 110 q 445 24 490 45 q 358 -5 401 3 q 271 -14 315 -14 q 129 15 191 -14 q 35 97 66 44 z "},"ю":{"ha":972,"x_min":56,"x_max":930,"o":"m 56 0 l 56 583 l 222 583 l 222 319 l 296 319 q 330 423 304 374 q 395 511 355 472 q 490 574 434 551 q 611 597 546 597 q 746 568 684 597 q 847 491 808 538 q 909 384 887 443 q 930 264 930 325 q 910 151 930 201 q 859 71 890 101 q 784 21 827 41 q 699 -6 741 1 q 611 -14 656 -14 q 525 -6 566 -14 q 441 20 484 1 q 367 67 398 39 q 314 143 335 96 q 292 250 294 190 l 222 250 l 222 0 l 56 0 m 465 250 q 505 99 465 149 q 611 49 544 49 q 718 99 678 49 q 757 250 757 149 q 750 349 757 302 q 728 439 743 396 q 682 509 712 483 q 611 534 652 534 q 540 509 570 534 q 494 439 510 483 q 472 349 479 396 q 465 250 465 302 z "},"я":{"ha":708,"x_min":35,"x_max":653,"o":"m 35 0 l 211 245 q 90 338 131 294 q 49 436 49 383 q 321 583 49 583 l 653 583 l 653 0 l 486 0 l 486 521 l 321 521 q 290 517 306 521 q 256 506 274 514 q 227 479 238 497 q 215 436 215 461 q 292 316 215 388 q 443 204 369 244 l 443 132 q 393 155 423 141 q 347 175 362 168 l 227 0 l 35 0 z "},"ё":{"ha":722,"x_min":41,"x_max":681,"o":"m 41 281 q 80 436 41 365 q 194 553 119 508 q 368 597 270 597 q 410 596 389 597 q 464 587 431 594 q 524 566 496 579 q 582 529 552 553 q 633 472 612 505 q 667 389 654 439 q 681 277 681 338 l 268 277 l 268 339 l 500 339 q 361 534 496 534 q 215 277 215 534 q 263 105 215 161 q 389 49 311 49 q 502 74 450 49 q 576 139 553 100 l 625 104 q 528 19 593 51 q 375 -14 462 -14 q 244 3 303 -14 q 139 54 185 20 q 67 146 93 88 q 41 281 41 204 m 163 753 q 184 805 163 784 q 236 827 206 827 q 288 805 267 827 q 309 753 309 784 q 288 702 309 723 q 236 681 267 681 q 184 702 206 681 q 163 753 163 723 m 412 753 q 434 805 412 783 q 486 827 456 827 q 537 805 517 827 q 558 753 558 784 q 537 702 558 722 q 486 681 517 681 q 434 702 456 681 q 412 753 412 723 z "}," ":{"ha":577,"x_min":0,"x_max":0,"o":""}," ":{"ha":1154,"x_min":0,"x_max":0,"o":""}," ":{"ha":577,"x_min":0,"x_max":0,"o":""}," ":{"ha":1154,"x_min":0,"x_max":0,"o":""}," ":{"ha":385,"x_min":0,"x_max":0,"o":""}," ":{"ha":288,"x_min":0,"x_max":0,"o":""}," ":{"ha":192,"x_min":0,"x_max":0,"o":""}," ":{"ha":192,"x_min":0,"x_max":0,"o":""}," ":{"ha":144,"x_min":0,"x_max":0,"o":""}," ":{"ha":231,"x_min":0,"x_max":0,"o":""}," ":{"ha":64,"x_min":0,"x_max":0,"o":""},"‐":{"ha":486,"x_min":41,"x_max":444,"o":"m 41 278 l 41 375 q 444 389 309 375 l 444 292 q 41 278 309 278 z "},"‑":{"ha":486,"x_min":41,"x_max":444,"o":"m 41 278 l 41 375 q 444 389 309 375 l 444 292 q 41 278 309 278 z "},"‒":{"ha":486,"x_min":41,"x_max":444,"o":"m 41 278 l 41 375 q 444 389 309 375 l 444 292 q 41 278 309 278 z "},"–":{"ha":764,"x_min":41,"x_max":722,"o":"m 41 278 l 41 375 q 722 389 587 375 l 722 292 q 41 278 587 278 z "},"—":{"ha":1042,"x_min":41,"x_max":1000,"o":"m 41 278 l 41 375 q 1000 389 602 375 l 1000 292 q 41 278 602 278 z "},"‘":{"ha":277,"x_min":56,"x_max":222,"o":"m 56 675 q 180 875 56 774 l 222 875 q 158 742 176 821 q 189 714 177 732 q 201 675 201 696 q 180 623 201 644 q 127 602 158 602 q 76 623 96 602 q 56 675 56 644 z "},"’":{"ha":277,"x_min":56,"x_max":222,"o":"m 56 602 q 119 734 101 654 q 89 762 100 744 q 77 802 77 780 q 98 853 77 832 q 150 875 119 875 q 202 854 181 875 q 222 802 222 833 q 97 602 222 703 l 56 602 z "},"‚":{"ha":277,"x_min":56,"x_max":222,"o":"m 56 -135 q 119 -1 101 -82 q 89 26 100 8 q 77 65 77 43 q 98 118 77 96 q 150 139 119 139 q 202 118 181 139 q 222 65 222 96 q 97 -135 222 -33 l 56 -135 z "},"“":{"ha":500,"x_min":56,"x_max":444,"o":"m 56 675 q 180 875 56 774 l 222 875 q 158 742 176 821 q 189 714 177 732 q 201 675 201 696 q 180 623 201 644 q 127 602 158 602 q 76 623 96 602 q 56 675 56 644 m 278 675 q 403 875 278 774 l 444 875 q 380 742 399 822 q 412 714 399 732 q 424 675 424 696 q 402 623 424 644 q 350 602 380 602 q 298 623 319 602 q 278 675 278 644 z "},"”":{"ha":500,"x_min":56,"x_max":444,"o":"m 56 602 q 119 734 101 654 q 89 762 100 744 q 77 802 77 780 q 98 853 77 832 q 150 875 119 875 q 202 854 181 875 q 222 802 222 833 q 97 602 222 703 l 56 602 m 278 602 q 342 734 323 654 q 311 762 323 744 q 298 802 298 780 q 320 853 298 832 q 372 875 342 875 q 424 854 404 875 q 444 802 444 833 q 319 602 444 703 l 278 602 z "},"„":{"ha":500,"x_min":56,"x_max":444,"o":"m 56 -135 q 119 -1 101 -82 q 89 26 100 8 q 77 65 77 43 q 98 118 77 96 q 150 139 119 139 q 202 118 181 139 q 222 65 222 96 q 97 -135 222 -33 l 56 -135 m 278 -135 q 342 -1 323 -82 q 310 26 322 8 q 298 65 298 44 q 320 117 298 96 q 372 139 342 139 q 424 118 403 139 q 444 65 444 96 q 319 -135 444 -34 l 278 -135 z "},"†":{"ha":583,"x_min":69,"x_max":514,"o":"m 69 583 l 69 673 l 243 673 l 208 930 l 375 930 l 340 673 l 514 673 l 514 583 l 69 583 m 208 -69 l 250 542 l 334 542 l 375 -69 l 208 -69 z "},"‡":{"ha":583,"x_min":69,"x_max":514,"o":"m 69 187 l 69 278 l 514 278 l 514 187 l 340 187 l 375 -69 l 208 -69 l 243 187 l 69 187 m 69 583 l 69 673 l 243 673 l 208 930 l 375 930 l 340 673 l 514 673 l 514 583 l 69 583 m 222 431 l 250 542 l 334 542 l 361 431 l 334 319 l 250 319 l 222 431 z "},"•":{"ha":382,"x_min":49,"x_max":334,"o":"m 49 399 q 91 500 49 459 q 192 542 133 542 q 293 501 253 542 q 334 399 334 460 q 293 298 334 339 q 192 257 253 257 q 91 298 133 257 q 49 399 49 340 z "},"…":{"ha":743,"x_min":35,"x_max":708,"o":"m 35 65 q 59 122 35 98 q 122 146 83 146 q 185 122 162 146 q 208 65 208 98 q 185 10 208 33 q 122 -14 162 -14 q 59 10 83 -14 q 35 65 35 33 m 285 65 q 309 122 285 98 q 372 146 333 146 q 435 122 412 146 q 458 65 458 98 q 435 10 458 33 q 372 -14 412 -14 q 309 10 333 -14 q 285 65 285 33 m 534 65 q 559 122 534 98 q 623 146 583 146 q 685 122 663 146 q 708 65 708 98 q 685 10 708 33 q 623 -14 662 -14 q 559 10 583 -14 q 534 65 534 34 z "}," ":{"ha":231,"x_min":0,"x_max":0,"o":""},"‰":{"ha":1619,"x_min":41,"x_max":1578,"o":"m 41 648 q 49 708 41 677 q 74 769 57 739 q 117 822 92 799 q 179 860 142 846 q 262 875 217 875 q 346 860 308 875 q 408 822 383 846 q 451 769 433 799 q 476 708 468 739 q 484 648 484 677 q 262 440 484 440 q 41 648 41 440 m 147 637 q 262 478 147 478 q 378 637 378 478 q 372 705 378 672 q 354 769 366 738 q 318 819 341 800 q 262 838 294 838 q 207 819 231 838 q 171 769 184 800 q 153 705 159 738 q 147 637 147 672 m 221 0 q 519 431 328 144 q 818 861 711 718 l 916 861 q 617 431 810 718 q 318 0 425 144 l 221 0 m 623 195 q 630 254 623 224 q 655 315 638 285 q 697 369 673 345 q 760 407 722 392 q 843 421 798 421 q 926 407 888 421 q 989 369 964 392 q 1031 315 1014 345 q 1056 254 1048 285 q 1064 195 1064 224 q 843 -14 1064 -14 q 623 195 623 -14 m 728 183 q 843 24 728 24 q 958 183 958 24 q 952 251 958 218 q 934 314 947 283 q 898 364 922 345 q 843 383 875 383 q 788 364 811 383 q 752 314 764 345 q 733 251 739 283 q 728 183 728 218 m 1136 195 q 1144 254 1136 224 q 1169 315 1152 285 q 1211 369 1186 345 q 1274 407 1236 392 q 1357 421 1312 421 q 1440 407 1402 421 q 1503 369 1478 392 q 1545 315 1528 345 q 1570 254 1563 285 q 1578 195 1578 224 q 1357 -14 1578 -14 q 1136 195 1136 -14 m 1242 183 q 1357 24 1242 24 q 1472 183 1472 24 q 1467 251 1472 218 q 1448 314 1461 283 q 1412 364 1436 345 q 1357 383 1389 383 q 1302 364 1325 383 q 1266 314 1278 345 q 1247 251 1253 283 q 1242 183 1242 218 z "},"‹":{"ha":451,"x_min":41,"x_max":410,"o":"m 41 328 l 43 334 q 379 559 231 446 l 410 529 q 225 330 340 432 q 410 132 342 227 l 379 102 q 41 328 235 212 z "},"›":{"ha":451,"x_min":41,"x_max":410,"o":"m 41 132 q 227 330 109 226 q 41 529 110 433 l 72 559 q 408 334 220 446 l 410 328 q 72 102 216 212 l 41 132 z "},"⁄":{"ha":833,"x_min":69,"x_max":764,"o":"m 69 0 q 361 431 173 144 q 653 861 549 718 l 764 861 q 472 431 660 718 q 180 0 284 144 l 69 0 z "}," ":{"ha":288,"x_min":0,"x_max":0,"o":""},"€":{"ha":951,"x_min":56,"x_max":896,"o":"m 56 298 l 56 361 l 140 361 q 139 412 139 378 q 142 465 139 429 l 56 465 l 56 528 l 153 528 q 205 661 170 598 q 293 771 241 723 q 414 847 345 819 q 562 875 484 875 q 734 838 656 875 q 856 736 813 800 l 786 686 q 704 755 757 726 q 597 785 651 785 q 342 528 382 785 l 528 528 l 528 465 l 335 465 q 334 406 334 446 q 335 361 334 374 l 528 361 l 528 298 l 343 298 q 431 132 365 187 q 586 77 497 77 q 734 112 673 77 q 827 196 796 147 l 896 146 q 576 -14 803 -14 q 469 -4 521 -14 q 365 27 418 5 q 270 84 312 50 q 196 174 228 119 q 150 298 163 229 l 56 298 z "},"™":{"ha":1075,"x_min":41,"x_max":1034,"o":"m 41 814 l 41 861 l 450 861 l 450 814 l 300 814 l 300 375 l 191 375 l 191 814 l 41 814 m 441 519 q 567 861 441 667 l 676 861 l 755 476 l 861 861 l 962 861 l 1034 375 l 932 375 l 876 737 l 775 375 l 676 375 l 586 806 q 543 564 543 701 q 575 375 543 474 l 465 375 q 441 519 441 452 z "},"∂":{"ha":762,"x_min":41,"x_max":721,"o":"m 41 214 q 64 327 41 273 q 135 430 87 381 q 264 512 182 478 q 454 555 347 545 l 472 493 q 366 465 413 488 q 291 411 319 442 q 245 342 263 380 q 219 270 227 304 q 212 203 212 235 q 246 91 212 134 q 349 49 279 49 q 432 69 396 49 q 490 120 469 90 q 524 195 511 151 q 542 278 537 239 q 546 363 546 318 q 538 449 546 408 q 519 524 531 491 q 489 587 508 556 q 452 640 469 618 q 409 685 434 663 q 365 721 383 707 q 319 751 346 735 q 278 774 292 766 q 241 792 264 781 q 212 806 218 803 l 248 861 q 433 792 347 838 q 583 684 519 747 q 684 540 647 622 q 721 368 721 458 q 675 173 721 259 q 541 37 630 87 q 330 -14 451 -14 q 121 45 200 -14 q 41 214 41 104 z "},"∏":{"ha":916,"x_min":69,"x_max":847,"o":"m 69 0 l 69 863 l 847 861 l 847 424 q 839 306 847 362 q 819 208 831 249 q 792 130 807 166 q 762 71 777 94 q 734 31 747 47 q 715 6 722 14 l 707 -1 l 589 -1 q 597 11 592 3 q 616 53 602 19 q 640 130 629 87 q 658 250 650 173 q 667 416 667 326 l 667 791 l 250 791 l 250 0 l 69 0 z "},"∑":{"ha":761,"x_min":49,"x_max":720,"o":"m 49 0 l 49 62 l 290 431 l 49 799 l 49 861 l 720 861 l 720 778 l 281 778 l 509 431 l 281 83 l 720 83 l 720 0 l 49 0 z "},"√":{"ha":961,"x_min":41,"x_max":1655,"o":"m 41 521 l 41 583 l 318 583 q 406 409 362 504 q 476 250 450 314 q 546 77 503 186 q 956 1046 723 543 q 1655 1060 1411 1046 l 1655 997 q 999 983 1436 983 q 575 0 769 499 l 401 0 q 331 178 358 112 q 259 342 304 245 q 170 521 214 439 l 41 521 z "},"∞":{"ha":977,"x_min":69,"x_max":908,"o":"m 69 328 q 82 428 69 381 q 120 513 94 475 q 192 574 146 551 q 297 596 237 596 q 364 584 333 596 q 416 553 395 571 q 452 511 436 534 q 477 469 469 488 q 489 435 485 451 q 501 469 493 451 q 526 511 509 488 q 562 553 542 534 q 614 584 583 571 q 681 596 645 596 q 786 574 741 596 q 857 513 831 551 q 896 428 883 475 q 908 328 908 381 q 896 228 908 274 q 857 142 883 181 q 786 82 831 104 q 681 60 741 60 q 614 72 645 60 q 562 103 583 85 q 526 145 542 121 q 501 186 509 168 q 489 221 493 205 q 477 186 485 205 q 452 145 469 168 q 416 103 436 121 q 364 72 395 85 q 297 60 333 60 q 210 74 249 60 q 145 114 171 89 q 102 174 119 139 q 77 247 85 208 q 69 328 69 285 m 141 358 q 140 351 141 358 q 139 328 139 345 q 141 298 139 311 q 153 269 144 285 q 178 243 163 253 q 223 225 194 233 q 292 218 252 218 q 403 250 364 218 q 453 328 442 281 q 403 406 442 374 q 292 437 364 437 q 223 430 252 437 q 178 413 194 423 q 153 387 163 402 q 141 358 144 371 m 525 328 q 575 250 536 281 q 686 218 614 218 q 755 225 726 218 q 800 243 784 233 q 825 269 815 253 q 837 298 834 285 q 839 328 839 311 q 837 358 839 345 q 825 387 834 371 q 800 413 815 402 q 755 430 784 423 q 686 437 726 437 q 575 406 614 437 q 525 328 536 374 z "},"∫":{"ha":833,"x_min":49,"x_max":807,"o":"m 49 -292 l 61 -229 q 151 -222 117 -229 q 210 -191 184 -214 q 250 -130 235 -167 q 278 -28 264 -93 l 415 629 q 464 750 430 701 q 550 826 498 799 q 664 864 602 852 q 807 875 725 875 l 794 812 q 704 805 738 812 q 646 774 671 798 q 606 713 621 750 q 578 611 592 677 l 440 -46 q 403 -147 428 -104 q 345 -217 378 -190 q 263 -261 311 -245 q 165 -285 216 -278 q 49 -292 114 -292 z "},"≈":{"ha":511,"x_min":41,"x_max":469,"o":"m 41 186 q 189 314 58 314 q 291 292 216 314 q 390 271 367 271 q 419 280 401 271 q 446 307 437 289 l 469 298 q 448 233 462 259 q 415 194 434 206 q 379 178 396 182 q 342 174 363 174 q 230 197 315 174 q 127 220 144 220 q 94 211 108 220 q 61 178 79 203 l 41 186 m 41 359 q 189 488 58 488 q 291 466 216 488 q 390 444 367 444 q 419 453 401 444 q 446 481 437 463 l 469 472 q 448 406 462 433 q 415 368 434 380 q 379 351 396 355 q 342 347 363 347 q 230 370 315 347 q 127 393 144 393 q 94 385 108 393 q 61 351 79 376 l 41 359 z "},"≠":{"ha":625,"x_min":41,"x_max":583,"o":"m 41 187 l 41 285 q 239 286 163 285 l 278 376 q 41 375 188 375 l 41 472 q 318 473 215 472 q 472 791 405 672 l 570 791 q 416 476 500 668 q 583 486 519 480 l 583 389 q 375 378 528 383 l 338 288 q 583 298 506 290 l 583 201 q 294 189 480 191 q 167 -69 233 47 l 69 -69 q 197 187 127 33 l 41 187 z "},"≤":{"ha":522,"x_min":41,"x_max":481,"o":"m 41 379 q 422 615 275 511 l 467 533 q 215 382 366 460 q 467 225 378 293 l 422 143 q 41 379 275 247 m 50 14 l 50 111 q 481 97 192 97 l 481 0 q 50 14 185 0 z "},"≥":{"ha":522,"x_min":41,"x_max":481,"o":"m 41 0 l 41 97 q 472 111 330 97 l 472 14 q 41 0 337 0 m 56 225 q 307 382 144 293 q 56 533 157 460 l 100 615 q 481 379 247 511 q 100 143 247 247 l 56 225 z "},"◊":{"ha":594,"x_min":56,"x_max":539,"o":"m 56 376 q 297 619 181 495 q 539 376 408 501 q 297 134 408 252 q 56 376 181 258 m 158 376 q 297 236 253 286 q 436 376 341 286 q 297 517 341 467 q 158 376 253 467 z "},"◼":{"ha":583,"x_min":0,"x_max":583,"o":"m 0 0 l 0 583 l 583 583 l 583 0 l 0 0 z "},"ﬁ":{"ha":729,"x_min":14,"x_max":676,"o":"m 14 521 l 14 583 l 125 583 l 125 629 q 148 750 125 701 q 218 826 172 799 q 324 864 265 852 q 465 875 383 875 l 465 812 q 377 805 409 812 q 325 774 345 798 q 298 713 304 750 q 292 611 292 676 l 292 583 l 452 583 l 452 521 l 292 521 l 292 0 l 125 0 l 125 521 l 14 521 m 503 760 q 527 816 503 792 q 590 840 551 840 q 653 817 630 840 q 676 760 676 793 q 653 704 676 728 q 590 681 630 681 q 527 704 551 681 q 503 760 503 728 m 507 0 l 507 583 l 673 583 l 673 0 l 507 0 z "},"ﬂ":{"ha":729,"x_min":14,"x_max":673,"o":"m 14 521 l 14 583 l 125 583 l 125 629 q 148 750 125 701 q 218 826 172 799 q 324 864 265 852 q 465 875 383 875 l 465 812 q 377 805 409 812 q 325 774 345 798 q 298 713 304 750 q 292 611 292 676 l 292 583 l 452 583 l 452 521 l 292 521 l 292 0 l 125 0 l 125 521 l 14 521 m 507 0 l 507 861 l 673 861 l 673 0 l 507 0 z "}}}
